<svg height="480pt" viewBox="0 0 480 480.00933" width="480pt" xmlns="http://www.w3.org/2000/svg"><path d="m392.003906 272.007812c-21.929687-.507812-43.726562 3.5625-64 11.945313v-7.625c-.378906-7.792969-4.230468-15.003906-10.496094-19.65625 33.015626-31.644531 43.472657-80.183594 26.417969-122.617187-17.050781-42.429688-58.191406-70.234376-103.921875-70.234376-45.730468 0-86.867187 27.804688-103.921875 70.234376-17.050781 42.433593-6.59375 90.972656 26.417969 122.617187-6.261719 4.652344-10.113281 11.863281-10.496094 19.65625v7.625c-20.269531-8.382813-42.066406-12.453125-64-11.945313-42.664062 0-87.99999975 14.015626-87.99999975 40v128c0 25.984376 45.33593775 40 87.99999975 40 32.402344 0 60.847656-7.308593 76-19.046874 15.152344 11.738281 43.601563 19.046874 76 19.046874 32.402344 0 60.855469-7.308593 76-19.046874 15.152344 11.746093 43.601563 19.046874 76 19.046874 42.664063 0 88-14.015624 88-40v-128c0-25.984374-45.335937-40-88-40zm0 16c43.953125 0 72 14.210938 72 24 0 9.792969-28.046875 24-72 24-26.625 0-50.984375-5.527343-64-14.253906v-19.496094c12.914063-8.703124 37.320313-14.25 64-14.25zm-82.109375 124.800782c-1.558593 1.738281-3.320312 3.28125-5.25 4.59375-12.960937 9.007812-37.726562 14.605468-64.640625 14.605468-26.910156 0-51.679687-5.597656-64.382812-14.398437l-.914063-.671875c-.605469-.425781-1.1875-.886719-1.742187-1.375-1.019532-.777344-1.953125-1.664062-2.785156-2.640625-1.265626-1.339844-2.035157-3.074219-2.175782-4.914063v-8.367187c16 10.25 42.59375 16.367187 72 16.367187 29.410156 0 56.074219-6.125 72-16.367187v8.367187c-.136718 1.796876-.882812 3.488282-2.109375 4.800782zm-141.890625-112.800782c16.976563 10.707032 45 16.335938 72 16.335938s55.023438-5.597656 72-16.335938v12c0 3.808594-4.582031 7.523438-7.359375 9.433594-12.960937 8.96875-37.726562 14.566406-64.640625 14.566406-26.910156 0-51.679687-5.597656-64.679687-14.589843-2.734375-1.886719-7.320313-5.601563-7.320313-9.410157zm136.640625 85.441407c-12.960937 8.960937-37.726562 14.558593-64.640625 14.558593-26.910156 0-51.679687-5.597656-64.679687-14.589843-2.734375-1.886719-7.320313-5.601563-7.320313-9.410157v-8.367187c16 10.25 42.59375 16.367187 72 16.367187 29.410156 0 56.074219-6.125 72-16.367187v8.367187c0 3.808594-4.582031 7.523438-7.359375 9.433594zm0-32c-12.960937 8.960937-37.726562 14.558593-64.640625 14.558593-26.910156 0-51.679687-5.597656-64.679687-14.589843-2.734375-1.886719-7.320313-5.601563-7.320313-9.410157v-8.367187c16 10.25 42.59375 16.367187 72 16.367187 29.410156 0 56.074219-6.125 72-16.367187v8.367187c0 3.808594-4.582031 7.523438-7.359375 9.433594zm-160.640625-177.441407c0-53.019531 42.980469-96 96-96 53.019532 0 96 42.980469 96 96 0 53.019532-42.980468 96-96 96-52.996094-.054687-95.941406-43.003906-96-96zm96 112c23.28125 0 45.976563-7.300781 64.890625-20.878906 4.476563 3.113282 7.109375 6.402344 7.109375 9.199219 0 9.792969-28.046875 24-72 24s-72-14.207031-72-24c0-2.808594 2.632813-6.09375 7.113282-9.199219 18.910156 13.578125 41.605468 20.878906 64.886718 20.878906zm-152 0c26.679688 0 51.089844 5.546876 64 14.25v19.511719c-12.910156 8.695313-37.320312 14.238281-64 14.238281-43.953125 0-72-14.207031-72-24 0-9.789062 28.046875-24 72-24zm-72 47.664063c16.976563 10.738281 45 16.335937 72 16.335937 21.929688.507813 43.726563-3.554687 64-11.925781v13.734375c-13.109375 8.753906-37.488281 14.191406-64 14.191406-26.910156 0-51.679687-5.597656-64.679687-14.589843-2.734375-1.886719-7.320313-5.601563-7.320313-9.410157zm0 32c16 10.21875 42.59375 16.335937 72 16.335937 21.941406.527344 43.75-3.574218 64-12.039062v13.847656c-13.109375 8.753906-37.488281 14.191406-64 14.191406-26.910156 0-51.679687-5.597656-64.679687-14.589843-2.734375-1.886719-7.320313-5.601563-7.320313-9.410157zm0 32c16 10.21875 42.59375 16.335937 72 16.335937 21.941406.527344 43.75-3.574218 64-12.039062v13.847656c-13.109375 8.753906-37.488281 14.191406-64 14.191406-26.910156 0-51.679687-5.597656-64.679687-14.589843-2.734375-1.886719-7.320313-5.601563-7.320313-9.410157zm0 40.335937v-8.367187c16 10.25 42.59375 16.367187 72 16.367187 21.941406.527344 43.75-3.574218 64-12.039062v4.039062c.027344 2.960938.660156 5.882813 1.863282 8.585938-10.832032 8.136719-34.878907 15.414062-65.863282 15.414062-43.953125 0-72-14.207031-72-24zm154.175782 4.921876c-1.265626-1.34375-2.035157-3.078126-2.175782-4.921876v-8.367187c16 10.25 42.59375 16.367187 72 16.367187 29.410156 0 56-6.101562 72-16.367187v8.367187c-.140625 1.847657-.910156 3.585938-2.183594 4.929688-7.757812 9.472656-34.230468 19.070312-69.816406 19.070312-35.582031 0-62.054687-9.597656-69.824218-19.078124zm221.824218 19.078124c-30.984375 0-55.03125-7.277343-65.863281-15.414062 1.203125-2.703125 1.835937-5.625 1.863281-8.585938v-4c20.257813 8.445313 42.0625 12.535157 64 12 29.433594 0 56.074219-6.125 72-16.367187v8.367187c0 9.792969-28.046875 24-72 24zm64.640625-46.566406c-12.960937 8.96875-37.726562 14.566406-64.640625 14.566406-26.671875 0-51.199218-5.496093-64-14.160156v-13.839844c20.257813 8.445313 42.0625 12.535157 64 12 29.433594 0 56.074219-6.125 72-16.367187v8.367187c0 3.808594-4.582031 7.523438-7.359375 9.433594zm0-32c-12.960937 8.96875-37.726562 14.566406-64.640625 14.566406-26.671875 0-51.199218-5.496093-64-14.160156v-13.839844c20.257813 8.445313 42.0625 12.535157 64 12 29.433594 0 56.074219-6.125 72-16.367187v8.367187c0 3.808594-4.582031 7.523438-7.359375 9.433594zm0-32c-12.960937 8.96875-37.726562 14.566406-64.640625 14.566406-26.671875 0-51.199218-5.496093-64-14.160156v-13.78125c20.273438 8.382813 42.070313 12.453125 64 11.941406 27 0 55.023438-5.597656 72-16.335937v8.335937c0 3.808594-4.582031 7.523438-7.359375 9.433594zm0 0"/><path d="m240.003906 264.007812c48.601563 0 88-39.398437 88-88 0-48.597656-39.398437-88-88-88-48.601562 0-88 39.402344-88 88 .054688 48.582032 39.421875 87.949219 88 88zm0-160c39.765625 0 72 32.238282 72 72 0 39.765626-32.234375 72-72 72s-72-32.234374-72-72c.042969-39.746093 32.253906-71.953124 72-72zm0 0"/><path d="m117.269531 251.855469c4.210938 1.34375 8.710938-.984375 10.050781-5.195313 1.339844-4.210937-.984374-8.710937-5.195312-10.050781-15.757812-3.976563-29.457031-13.710937-38.398438-27.28125-32.441406-55.855469 7.230469-113.320313 60.445313-113.320313l1.234375.058594c3.90625-.003906 7.242188-2.828125 7.886719-6.679687 6.101562-36.644531 34.585937-65.492188 71.148437-72.058594 36.5625-6.5625 73.300782 10.570313 91.769532 42.800781 1.386718 2.40625 3.921874 3.917969 6.699218 4 42.28125 1.386719 77.585938 32.671875 84.046875 74.480469 6.457031 41.808594-17.757812 82.292969-57.648437 96.375-4.167969 1.472656-6.355469 6.042969-4.882813 10.214844 1.46875 4.167969 6.042969 6.351562 10.210938 4.882812 46.289062-16.441406 74.761719-63.027343 68.285156-111.71875-6.476563-48.691406-46.140625-86.210937-95.117187-89.976562-22.355469-35.378907-63.757813-53.886719-105.03125-46.949219-41.269532 6.9375-74.34375 37.964844-83.90625 78.707031-42.367188 2.441407-76.957032 34.765625-82.253907 76.871094s20.210938 81.996094 60.65625 94.851563zm0 0"/><path d="m208.003906 200.007812h-8c-4.417968 0-8 3.582032-8 8 0 4.417969 3.582032 8 8 8h24v8c0 4.417969 3.582032 8 8 8 4.417969 0 8-3.582031 8-8v-8h16v8c0 4.417969 3.582032 8 8 8 4.417969 0 8-3.582031 8-8v-9.46875c7.566406-2.621093 13.308594-8.871093 15.273438-16.632812 1.96875-7.761719-.105469-15.992188-5.511719-21.898438 5.40625-5.902343 7.480469-14.132812 5.511719-21.894531-1.964844-7.761719-7.707032-14.015625-15.273438-16.632812v-9.472657c0-4.417968-3.582031-8-8-8-4.417968 0-8 3.582032-8 8v8h-16v-8c0-4.417968-3.582031-8-8-8-4.417968 0-8 3.582032-8 8v8h-24c-4.417968 0-8 3.582032-8 8 0 4.417969 3.582032 8 8 8h8zm16-48h40c4.417969 0 8 3.582032 8 8 0 4.417969-3.582031 8-8 8h-40zm40 48h-40v-16h40c4.417969 0 8 3.582032 8 8 0 4.417969-3.582031 8-8 8zm0 0"/></svg>