<svg height="480pt" viewBox="0 0 480.07922 480" width="480pt" xmlns="http://www.w3.org/2000/svg"><path d="m272.042969 97.503906v-9.472656c0-4.417969-3.582031-8-8-8s-8 3.582031-8 8v8h-16v-8c0-4.417969-3.582031-8-8-8s-8 3.582031-8 8v8h-24c-4.417969 0-8 3.582031-8 8 0 4.421875 3.582031 8 8 8h8v48h-8c-4.417969 0-8 3.582031-8 8 0 4.421875 3.582031 8 8 8h24v8c0 4.421875 3.582031 8 8 8s8-3.578125 8-8v-8h16v8c0 4.421875 3.582031 8 8 8s8-3.578125 8-8v-9.46875c7.566406-2.621094 13.308593-8.871094 15.273437-16.632812 1.96875-7.761719-.105468-15.992188-5.511718-21.898438 5.40625-5.902344 7.480468-14.132812 5.511718-21.894531-1.964844-7.761719-7.707031-14.015625-15.273437-16.632813zm-48 14.527344h40c4.417969 0 8 3.582031 8 8 0 4.421875-3.582031 8-8 8h-40zm40 48h-40v-16h40c4.417969 0 8 3.582031 8 8 0 4.421875-3.582031 8-8 8zm0 0"/><path d="m120.042969 353.503906v-9.472656c0-4.417969-3.582031-8-8-8s-8 3.582031-8 8v8h-16v-8c0-4.417969-3.582031-8-8-8s-8 3.582031-8 8v8h-24c-4.417969 0-8 3.582031-8 8 0 4.421875 3.582031 8 8 8h8v48h-8c-4.417969 0-8 3.582031-8 8 0 4.421875 3.582031 8 8 8h24v8c0 4.421875 3.582031 8 8 8s8-3.578125 8-8v-8h16v8c0 4.421875 3.582031 8 8 8s8-3.578125 8-8v-9.46875c7.566406-2.621094 13.308593-8.871094 15.273437-16.632812 1.96875-7.761719-.105468-15.992188-5.511718-21.898438 5.40625-5.902344 7.480468-14.132812 5.511718-21.894531-1.964844-7.761719-7.707031-14.015625-15.273437-16.632813zm-48 14.527344h40c4.417969 0 8 3.582031 8 8 0 4.421875-3.582031 8-8 8h-40zm40 48h-40v-16h40c4.417969 0 8 3.582031 8 8 0 4.421875-3.582031 8-8 8zm0 0"/><path d="m392.042969 304.03125c-45.46875.066406-83.417969 34.726562-87.589844 80h-41.882813c-2.417968-6.773438-7.75-12.105469-14.527343-14.527344v-113.472656h72c55.878906-.019531 101.742187-44.210938 103.839843-100.046875 2.097657-55.839844-40.320312-103.347656-96.039062-107.558594-22.355469-35.378906-63.757812-53.886719-105.03125-46.949219-41.269531 6.9375-74.34375 37.964844-83.90625 78.707032-47.503906 2.796875-84.179688 42.851562-82.792969 90.417968 1.390625 47.566407 40.34375 85.414063 87.929688 85.429688h88v113.472656c-6.773438 2.421875-12.105469 7.753906-14.527344 14.527344h-41.878906c-4.277344-46.847656-44.644531-82.046875-91.640625-79.90625s-83.996094 40.863281-83.996094 87.90625c0 47.046875 37 85.769531 83.996094 87.910156s87.363281-33.058594 91.640625-79.910156h41.878906c3.34375 9.582031 12.378906 15.996094 22.523437 15.996094 10.144532 0 19.183594-6.414063 22.523438-15.996094h41.882812c4.324219 47.371094 45.503907 82.730469 92.984376 79.839844 47.476562-2.890625 84.0625-42.988282 82.609374-90.53125-1.457031-47.542969-40.429687-85.324219-87.996093-85.308594zm-245.703125-64c-36.214844.503906-67.398438-25.441406-73.496094-61.140625-3.132812-20.777344 2.953125-41.886719 16.664062-57.808594 13.710938-15.917969 33.683594-25.066406 54.695313-25.050781l1.234375.058594c3.90625-.003906 7.242188-2.828125 7.886719-6.679688 6.101562-36.652344 34.589843-65.503906 71.160156-72.070312 36.570313-6.5625 73.316406 10.582031 91.785156 42.820312 1.371094 2.402344 3.894531 3.917969 6.660157 4 24.101562.683594 46.859374 11.265625 62.914062 29.253906 16.054688 17.988282 23.988281 41.796876 21.9375 65.820313-4.597656 46.277344-43.8125 81.359375-90.3125 80.796875h-69.425781v-16.40625c46.851562-4.277344 82.050781-44.644531 79.910156-91.640625s-40.867187-83.996094-87.910156-83.996094-85.769531 37-87.910157 83.996094c-2.136718 46.996094 33.0625 87.363281 79.910157 91.640625v16.40625zm93.703125-32c-39.765625 0-72-32.234375-72-72 0-39.761719 32.234375-72 72-72s72 32.238281 72 72c-.042969 39.746094-32.253907 71.957031-72 72zm-152 256c-39.765625 0-72-32.234375-72-72 0-39.761719 32.234375-72 72-72s72 32.238281 72 72c-.042969 39.746094-32.253907 71.957031-72 72zm152-64c-4.417969 0-8-3.578125-8-8 0-4.417969 3.582031-8 8-8s8 3.582031 8 8c0 4.421875-3.582031 8-8 8zm152 64c-39.765625 0-72-32.234375-72-72 0-39.761719 32.234375-72 72-72s72 32.238281 72 72c-.042969 39.746094-32.253907 71.957031-72 72zm0 0"/><path d="m424.042969 353.503906v-9.472656c0-4.417969-3.582031-8-8-8s-8 3.582031-8 8v8h-16v-8c0-4.417969-3.582031-8-8-8s-8 3.582031-8 8v8h-24c-4.417969 0-8 3.582031-8 8 0 4.421875 3.582031 8 8 8h8v48h-8c-4.417969 0-8 3.582031-8 8 0 4.421875 3.582031 8 8 8h24v8c0 4.421875 3.582031 8 8 8s8-3.578125 8-8v-8h16v8c0 4.421875 3.582031 8 8 8s8-3.578125 8-8v-9.46875c7.566406-2.621094 13.308593-8.871094 15.273437-16.632812 1.96875-7.761719-.105468-15.992188-5.511718-21.898438 5.40625-5.902344 7.480468-14.132812 5.511718-21.894531-1.964844-7.761719-7.707031-14.015625-15.273437-16.632813zm-48 14.527344h40c4.417969 0 8 3.582031 8 8 0 4.421875-3.582031 8-8 8h-40zm40 48h-40v-16h40c4.417969 0 8 3.582031 8 8 0 4.421875-3.582031 8-8 8zm0 0"/></svg>