<svg height="480pt" viewBox="0 0 480 480" width="480pt" xmlns="http://www.w3.org/2000/svg"><path d="m240 271.996094c-57.4375 0-104 46.5625-104 104s46.5625 104 104 104 104-46.5625 104-104c-.0625-57.410156-46.589844-103.9375-104-104zm0 192c-48.601562 0-88-39.398438-88-88 0-48.601563 39.398438-88 88-88s88 39.398437 88 88c-.054688 48.578125-39.421875 87.949218-88 88zm0 0"/><path d="m240 295.996094c-44.183594 0-80 35.816406-80 80s35.816406 80 80 80 80-35.816406 80-80c-.046875-44.160156-35.835938-79.949219-80-80zm0 144c-35.347656 0-64-28.652344-64-64 0-35.34375 28.652344-64 64-64s64 28.65625 64 64c-.039062 35.332031-28.671875 63.960937-64 64zm0 0"/><path d="m264 342.238281v-14.242187h-16v8h-8v-8h-16v8h-8v16h8v48h-8v16h8v8h16v-8h8v8h16v-14.238282c4.765625-4.210937 7.636719-10.160156 7.96875-16.511718.332031-6.351563-1.90625-12.566406-6.207031-17.25 4.300781-4.683594 6.539062-10.898438 6.207031-17.25-.332031-6.347656-3.203125-12.300782-7.96875-16.507813zm-8 17.757813c0 4.417968-3.582031 8-8 8h-8v-16h8c4.417969 0 8 3.582031 8 8zm-16 40v-16h8c4.417969 0 8 3.582031 8 8 0 4.417968-3.582031 8-8 8zm0 0"/><path d="m56 367.996094c-30.929688 0-56 25.074218-56 56 0 30.929687 25.070312 56 56 56s56-25.070313 56-56c-.035156-30.914063-25.085938-55.964844-56-56zm0 96c-22.089844 0-40-17.90625-40-40 0-22.089844 17.910156-40 40-40s40 17.910156 40 40c-.027344 22.082031-17.917969 39.972656-40 40zm0 0"/><path d="m56 391.996094c-17.671875 0-32 14.328125-32 32s14.328125 32 32 32 32-14.328125 32-32-14.328125-32-32-32zm0 48c-8.835938 0-16-7.164063-16-16 0-8.835938 7.164062-16 16-16s16 7.164062 16 16c0 8.835937-7.164062 16-16 16zm0 0"/><path d="m56 239.996094c-30.929688 0-56 25.074218-56 56 0 30.929687 25.070312 56 56 56s56-25.070313 56-56c-.035156-30.914063-25.085938-55.964844-56-56zm0 96c-22.089844 0-40-17.90625-40-40 0-22.089844 17.910156-40 40-40s40 17.910156 40 40c-.027344 22.082031-17.917969 39.972656-40 40zm0 0"/><path d="m56 263.996094c-17.671875 0-32 14.328125-32 32s14.328125 32 32 32 32-14.328125 32-32-14.328125-32-32-32zm0 48c-8.835938 0-16-7.164063-16-16 0-8.835938 7.164062-16 16-16s16 7.164062 16 16c0 8.835937-7.164062 16-16 16zm0 0"/><path d="m424 367.996094c-30.929688 0-56 25.074218-56 56 0 30.929687 25.070312 56 56 56s56-25.070313 56-56c-.035156-30.914063-25.085938-55.964844-56-56zm0 96c-22.089844 0-40-17.90625-40-40 0-22.089844 17.910156-40 40-40s40 17.910156 40 40c-.027344 22.082031-17.917969 39.972656-40 40zm0 0"/><path d="m424 391.996094c-17.671875 0-32 14.328125-32 32s14.328125 32 32 32 32-14.328125 32-32-14.328125-32-32-32zm0 48c-8.835938 0-16-7.164063-16-16 0-8.835938 7.164062-16 16-16s16 7.164062 16 16c0 8.835937-7.164062 16-16 16zm0 0"/><path d="m368 295.996094c0 30.929687 25.070312 56 56 56s56-25.070313 56-56c0-30.925782-25.070312-56-56-56-30.914062.035156-55.964844 25.085937-56 56zm96 0c0 22.09375-17.910156 40-40 40s-40-17.90625-40-40c0-22.089844 17.910156-40 40-40 22.082031.027344 39.972656 17.921875 40 40zm0 0"/><path d="m392 295.996094c0 17.671875 14.328125 32 32 32s32-14.328125 32-32-14.328125-32-32-32-32 14.328125-32 32zm48 0c0 8.835937-7.164062 16-16 16s-16-7.164063-16-16c0-8.835938 7.164062-16 16-16s16 7.164062 16 16zm0 0"/><path d="m144 255.996094h176c55.914062.039062 101.839844-44.164063 103.9375-100.039063 2.101562-55.875-40.378906-103.402343-96.136719-107.558593-22.351562-35.386719-63.757812-53.898438-105.03125-46.960938-41.273437 6.933594-74.355469 37.964844-83.914062 78.710938-47.507813 2.796874-84.183594 42.851562-82.792969 90.421874 1.390625 47.566407 40.347656 85.414063 87.9375 85.425782zm.160156-160 1.097656.054687c3.902344-.070312 7.230469-2.847656 8-6.679687 6.085938-36.664063 34.585938-65.53125 71.167969-72.097656 36.582031-6.566407 73.339844 10.59375 91.796875 42.851562 1.386719 2.398438 3.914063 3.914062 6.679688 4 24.101562.683594 46.855468 11.261719 62.90625 29.253906 16.054687 17.988282 23.984375 41.796875 21.925781 65.816406-4.5625 46.277344-43.765625 81.371094-90.261719 80.800782h-171.199218c-36.210938.507812-67.390626-25.4375-73.472657-61.136719-3.136719-20.777344 2.949219-41.886719 16.660157-57.808594 13.710937-15.921875 33.6875-25.074219 54.699218-25.054687zm0 0"/></svg>