<svg height="480pt" viewBox="0 0 480 480.02608" width="480pt" xmlns="http://www.w3.org/2000/svg"><path d="m416.011719 336.472656v-40.472656c0-4.417969-3.582031-8-8-8h-88v-32c55.914062.035156 101.839843-44.167969 103.941406-100.042969 2.097656-55.875-40.378906-103.398437-96.140625-107.558593-22.347656-35.382813-63.753906-53.898438-105.027344-46.960938-41.273437 6.933594-74.351562 37.96875-83.90625 78.714844-47.507812 2.796875-84.183594 42.847656-82.792968 90.417968 1.386718 47.566407 40.339843 85.410157 87.925781 85.429688h16v32h-88c-4.417969 0-8 3.582031-8 8v40.472656c-37.96875 4.246094-66.011719 37.410156-63.886719 75.558594s33.679688 67.996094 71.886719 67.996094c38.210937 0 69.765625-29.847656 71.890625-67.996094s-25.917969-71.3125-63.890625-75.558594v-32.472656h88c4.417969 0 8-3.582031 8-8v-40h56v80.472656c-37.96875 4.246094-66.011719 37.410156-63.886719 75.558594s33.679688 67.996094 71.886719 67.996094c38.210937 0 69.765625-29.847656 71.890625-67.996094s-25.917969-71.3125-63.890625-75.558594v-80.472656h56v40c0 4.417969 3.582031 8 8 8h88v32.472656c-37.96875 4.246094-66.011719 37.410156-63.886719 75.558594s33.679688 67.996094 71.886719 67.996094c38.210937 0 69.765625-29.847656 71.890625-67.996094s-25.917969-71.3125-63.890625-75.558594zm-288 71.527344c0 30.929688-25.070313 56-56 56-30.925781 0-56-25.070312-56-56s25.074219-56 56-56c30.914062.035156 55.964843 25.085938 56 56zm168 0c0 30.929688-25.070313 56-56 56-30.925781 0-56-25.070312-56-56s25.074219-56 56-56c30.914062.035156 55.964843 25.085938 56 56zm8-208c0-4.417969 3.582031-8 8-8s8 3.582031 8 8-3.582031 8-8 8-8-3.582031-8-8zm-56 40v-17.472656c11.023437-3.894532 17.632812-15.164063 15.65625-26.683594-1.976563-11.523438-11.964844-19.941406-23.65625-19.941406-11.6875 0-21.675781 8.417968-23.652344 19.941406-1.976563 11.519531 4.632813 22.789062 15.652344 26.683594v17.472656h-56v-17.472656c11.023437-3.894532 17.632812-15.164063 15.65625-26.683594-1.976563-11.523438-11.964844-19.941406-23.65625-19.941406-11.6875 0-21.675781 8.417968-23.652344 19.941406-1.976563 11.519531 4.632813 22.789062 15.652344 26.683594v17.472656h-13.703125c-36.214844.5-67.398438-25.445312-73.496094-61.144531-3.132812-20.777344 2.953125-41.886719 16.664062-57.804688 13.710938-15.921875 33.683594-25.070312 54.695313-25.050781.191406 0 1.074219.054688 1.234375.054688 3.90625 0 7.242188-2.824219 7.886719-6.679688 6.101562-36.648438 34.589843-65.503906 71.160156-72.066406s73.316406 10.578125 91.785156 42.820312c1.382813 2.398438 3.910157 3.914063 6.679688 4 24.097656.679688 46.851562 11.261719 62.90625 29.253906 16.050781 17.988282 23.980469 41.796876 21.925781 65.816407-4.484375 45.285156-42.234375 80-87.738281 80.679687v-17.351562c11.023437-3.894532 17.632812-15.164063 15.65625-26.683594-1.976563-11.523438-11.964844-19.941406-23.65625-19.941406-11.6875 0-21.675781 8.417968-23.652344 19.941406-1.976563 11.519531 4.632813 22.789062 15.652344 26.683594v17.472656zm-16-40c0-4.417969 3.582031-8 8-8s8 3.582031 8 8-3.582031 8-8 8-8-3.582031-8-8zm-72 0c0-4.417969 3.582031-8 8-8s8 3.582031 8 8-3.582031 8-8 8-8-3.582031-8-8zm248 264c-30.925781 0-56-25.070312-56-56s25.074219-56 56-56c30.929687 0 56 25.070312 56 56-.035157 30.914062-25.085938 55.964844-56 56zm0 0"/></svg>