<svg height="480pt" viewBox="0 0 480.03236 480" width="480pt" xmlns="http://www.w3.org/2000/svg"><path d="m472.03125 272.027344h-31.429688l22.222657-22.222656c3.125-3.125 3.125-8.1875 0-11.3125l-45.253907-45.253907c-3.125-3.125-8.191406-3.125-11.3125 0l-22.226562 22.222657v-31.433594c0-4.417969-3.582031-8-8-8h-10.863281c7.125-29.609375.867187-60.855469-17.113281-85.433594-17.984376-24.582031-45.867188-40.007812-76.246094-42.179688-22.347656-35.382812-63.746094-53.898437-105.019532-46.960937-41.269531 6.9375-74.34375 37.96875-83.894531 78.710937-24.683593 1.453126-47.621093 13.214844-63.207031 32.414063-15.582031 19.199219-22.375 44.066406-18.71875 68.523437 7.292969 43.648438 45.324219 75.460938 89.574219 74.925782h140.921875l16 16h-31.433594c-4.417969 0-8 3.582031-8 8v64c0 4.421875 3.582031 8 8 8h31.433594l-22.222656 22.226562c-3.125 3.125-3.125 8.1875 0 11.3125l45.253906 45.253906c3.125 3.125 8.1875 3.125 11.3125 0l22.222656-22.222656v31.429688c0 4.421875 3.582031 8 8 8h64c4.417969 0 8-3.578125 8-8v-31.429688l22.226562 22.222656c3.121094 3.125 8.1875 3.125 11.3125 0l45.253907-45.253906c3.125-3.125 3.125-8.1875 0-11.3125l-22.222657-22.226562h31.429688c4.417969 0 8-3.578125 8-8v-64c0-4.417969-3.582031-8-8-8zm-381.496094-32c-36.296875.554687-67.582031-25.429688-73.703125-61.214844-4.179687-27.644531 7.933594-55.222656 31.121094-70.847656 11.8125-8.007813 25.808594-12.175782 40.078125-11.9375h.050781c.214844 0 1.148438.066406 1.367188.066406 3.90625 0 7.242187-2.824219 7.886719-6.679688 6.097656-36.636718 34.574218-65.480468 71.128906-72.042968 36.554687-6.5625 73.289062 10.570312 91.75 42.792968 1.386718 2.402344 3.917968 3.917969 6.691406 4 27.078125.789063 52.269531 14.050782 68.253906 35.921876 15.980469 21.875 20.957032 49.90625 13.480469 75.941406h-36.609375c-4.417969 0-8 3.582031-8 8v31.433594l-22.222656-22.222657c-3.125-3.125-8.1875-3.125-11.3125 0l-45.253906 45.253907c-.402344.46875-.746094.984374-1.027344 1.535156zm373.496094 96h-29.597656c-3.386719.003906-6.40625 2.136718-7.539063 5.328125-1.027343 2.902343-2.207031 5.746093-3.535156 8.523437-1.464844 3.058594-.839844 6.710938 1.5625 9.109375l20.917969 20.921875-33.945313 33.941406-20.902343-20.917968c-2.398438-2.398438-6.050782-3.027344-9.113282-1.558594-2.773437 1.324219-5.617187 2.503906-8.519531 3.535156-3.183594 1.128906-5.316406 4.136719-5.328125 7.519532v29.597656h-48v-29.597656c0-3.386719-2.136719-6.40625-5.328125-7.535157-2.898437-1.03125-5.742187-2.210937-8.519531-3.539062-3.058594-1.464844-6.710938-.839844-9.109375 1.5625l-20.921875 20.917969-33.945313-33.941407 20.921875-20.921875c2.398438-2.398437 3.023438-6.050781 1.558594-9.113281-1.328125-2.773437-2.507812-5.617187-3.535156-8.519531-1.132813-3.179688-4.144532-5.304688-7.519532-5.3125h-29.601562v-48h29.601562c3.386719 0 6.40625-2.132813 7.535157-5.324219 1.027343-2.902344 2.210937-5.746094 3.535156-8.523437 1.464844-3.058594.839844-6.710938-1.558594-9.109376l-20.921875-20.921874 33.945313-33.941407 20.921875 20.917969c2.398437 2.398438 6.050781 3.023438 9.109375 1.558594 2.777343-1.324219 5.621093-2.507813 8.519531-3.535156 3.183594-1.132813 5.308594-4.144532 5.3125-7.519532v-29.601562h48v29.601562c.003906 3.386719 2.136719 6.40625 5.328125 7.535156 2.902344 1.03125 5.746094 2.210938 8.519531 3.539063 3.0625 1.464844 6.714844.839844 9.113282-1.5625l20.921874-20.917969 33.941407 33.941406-20.917969 20.90625c-2.402344 2.398438-3.027344 6.050782-1.5625 9.109376 1.328125 2.777343 2.507812 5.621093 3.539062 8.523437 1.128907 3.183594 4.136719 5.316406 7.519532 5.324219h29.597656zm0 0"/><path d="m344.03125 240.027344c-39.761719 0-72 32.238281-72 72 0 39.765625 32.238281 72 72 72 39.765625 0 72-32.234375 72-72-.042969-39.746094-32.253906-71.953125-72-72zm0 128c-30.925781 0-56-25.070313-56-56 0-30.925782 25.074219-56 56-56 30.929688 0 56 25.074218 56 56-.035156 30.914062-25.085938 55.964844-56 56zm0 0"/><path d="m184.03125 352.027344h-10.742188l7.597657-7.597656c3.125-3.125 3.125-8.1875 0-11.3125l-33.941407-33.945313c-3.125-3.121094-8.1875-3.121094-11.3125 0l-7.601562 7.601563v-10.746094c0-4.417969-3.582031-8-8-8h-48c-4.417969 0-8 3.582031-8 8v10.746094l-7.597656-7.601563c-3.125-3.121094-8.1875-3.121094-11.3125 0l-33.9375 33.945313c-3.121094 3.125-3.121094 8.1875 0 11.3125l7.601562 7.597656h-10.753906c-4.417969 0-8 3.582031-8 8v48c0 4.421875 3.582031 8 8 8h10.746094l-7.601563 7.601562c-3.121093 3.125-3.121093 8.1875 0 11.3125l33.945313 33.945313c3.125 3.121093 8.1875 3.121093 11.3125 0l7.597656-7.601563v10.742188c0 4.421875 3.582031 8 8 8h48c4.417969 0 8-3.578125 8-8v-10.742188l7.601562 7.601563c3.125 3.121093 8.1875 3.121093 11.3125 0l33.941407-33.945313c3.125-3.125 3.125-8.1875 0-11.3125l-7.597657-7.601562h10.742188c4.417969 0 8-3.578125 8-8v-48c0-4.417969-3.582031-8-8-8zm-8 48h-22.054688c-3.234374.003906-6.152343 1.953125-7.390624 4.941406-1.238282 2.988281-.554688 6.429688 1.734374 8.714844l15.601563 15.601562-22.632813 22.632813-15.601562-15.601563c-2.285156-2.285156-5.726562-2.96875-8.714844-1.734375-2.992187 1.238281-4.941406 4.15625-4.941406 7.390625v22.054688h-32v-22.054688c0-3.234375-1.949219-6.152344-4.9375-7.390625-2.988281-1.234375-6.429688-.550781-8.71875 1.734375l-15.597656 15.601563-22.625-22.632813 15.601562-15.601562c2.285156-2.289063 2.96875-5.730469 1.730469-8.71875-1.238281-2.992188-4.160156-4.9375-7.394531-4.9375h-22.058594v-32h22.058594c3.234375 0 6.148437-1.949219 7.386718-4.9375 1.238282-2.988282.554688-6.429688-1.730468-8.714844l-15.601563-15.601562 22.632813-22.632813 15.597656 15.601563c2.289062 2.285156 5.730469 2.96875 8.71875 1.734374 2.988281-1.238281 4.9375-4.15625 4.9375-7.390624v-22.058594h32v22.058594c0 3.234374 1.949219 6.152343 4.941406 7.390624 2.988282 1.234376 6.429688.550782 8.714844-1.734374l15.601562-15.601563 22.632813 22.632813-15.601563 15.601562c-2.289062 2.285156-2.972656 5.726562-1.734374 8.714844 1.238281 2.988281 4.15625 4.9375 7.390624 4.9375h22.054688zm0 0"/><path d="m96.03125 344.027344c-22.089844 0-40 17.910156-40 40 0 22.09375 17.910156 40 40 40 22.09375 0 40-17.90625 40-40-.023438-22.078125-17.917969-39.972656-40-40zm0 64c-13.253906 0-24-10.742188-24-24 0-13.253906 10.746094-24 24-24 13.257812 0 24 10.746094 24 24 0 13.257812-10.742188 24-24 24zm0 0"/></svg>