<svg height="480pt" viewBox="0 0 480 480" width="480pt" xmlns="http://www.w3.org/2000/svg"><path d="m480 72v-64c0-4.417969-3.582031-8-8-8h-64v16h44.6875l-133.273438 133.273438c-19.621093-23.609376-48.730468-37.261719-79.425781-37.261719-30.699219 0-59.804687 13.652343-79.429687 37.261719l-133.246094-133.273438h44.6875v-16h-64c-4.417969 0-8 3.582031-8 8v64h16v-44.6875l135.121094 135.085938c-5.585938 9.21875-9.710938 19.242187-12.234375 29.722656-40.496094 2.40625-74.101563 32.1875-81.359375 72.105468-7.257813 39.914063 13.714844 79.617188 50.777344 96.125l-92.304688 92.335938v-44.6875h-16v64c0 4.417969 3.582031 8 8 8h64v-16h-44.6875l98.183594-98.183594c6.070312 1.398438 12.273437 2.132813 18.503906 2.183594h176c10.753906-.011719 21.4375-1.707031 31.664062-5.023438l101.023438 101.023438h-44.6875v16h64c4.417969 0 8-3.582031 8-8v-64h-16v44.6875l-96.328125-96.328125c40.894531-21.042969 63.070313-66.480469 54.503906-111.667969-8.570312-45.183594-45.839843-79.351562-91.601562-83.964844l133.425781-133.414062v44.6875zm-72 192c-.070312 36.636719-22.757812 69.421875-57.015625 82.398438-9.898437 3.75-20.402344 5.644531-30.984375 5.601562h-176c-6.429688.023438-12.835938-.851562-19.023438-2.601562-20.523437-5.660157-37.507812-20.082032-46.425781-39.414063-8.914062-19.328125-8.859375-41.609375.152344-60.894531 11.792969-25.34375 37.347656-41.425782 65.296875-41.089844.214844 0 1.152344.0625 1.367188.0625 3.902343 0 7.238281-2.8125 7.890624-6.664062 5.867188-35.296876 32.5625-63.503907 67.484376-71.300782 34.921874-7.800781 71.082031 6.367188 91.410156 35.8125 1.421875 1.988282 2.738281 4.046875 3.945312 6.167969 1.484375 2.492187 4.15625 4.03125 7.054688 4.066406 47.402344 1.488281 85.007812 40.429688 84.847656 87.855469zm0 0"/></svg>