<svg height="480pt" viewBox="-56 0 480 480.03263" width="480pt" xmlns="http://www.w3.org/2000/svg"><path d="m271.847656 48.402344c-22.355468-35.390625-63.765625-53.902344-105.042968-46.964844-41.277344 6.9375-74.359376 37.972656-83.917969 78.722656-24.152344 1.441406-46.644531 12.75-62.210938 31.269532-15.566406 18.523437-22.832031 42.628906-20.09375 66.667968 5.96875 45.023438 44.636719 78.488282 90.046875 77.933594h5.402344v-16h-5.695312c-36.21875.507812-67.410157-25.4375-73.503907-61.144531-3.136719-20.777344 2.953125-41.886719 16.664063-57.808594 13.714844-15.917969 33.691406-25.066406 54.703125-25.046875l1.230469.058594c3.910156-.003906 7.242187-2.828125 7.890624-6.679688 6.097657-36.648437 34.585938-65.5 71.152344-72.070312 36.566406-6.566406 73.308594 10.570312 91.78125 42.804687 1.386719 2.40625 3.921875 3.917969 6.695313 4 46.597656 1.496094 83.929687 39.085938 85.105469 85.691407 1.175781 46.605468-34.21875 86.027343-80.679688 89.867187l1.3125 15.953125c53.765625-4.746094 95.082031-49.648438 95.34375-103.625.214844-54.476562-41.84375-99.789062-96.183594-103.628906zm0 0"/><path d="m216.03125 64.03125c.0625-16.644531-12.648438-30.554688-29.230469-32-16.582031-1.441406-31.5 10.070312-34.308593 26.476562-2.8125 16.40625 7.421874 32.226563 23.539062 36.390626v385.132812h16v-385.132812c14.085938-3.636719 23.945312-16.320313 24-30.867188zm-32 16c-8.835938 0-16-7.160156-16-16 0-8.835938 7.164062-16 16-16s16 7.164062 16 16c0 8.839844-7.164062 16-16 16zm0 0"/><path d="m160.03125 128.03125c0-17.671875-14.328125-32-32-32-17.675781 0-32 14.328125-32 32 0 17.675781 14.324219 32 32 32 1.609375-.035156 3.214844-.195312 4.800781-.480469l11.199219 26.128907v294.351562h16v-296c0-1.085938-.21875-2.160156-.648438-3.160156l-11.863281-27.636719c7.855469-6.003906 12.480469-15.316406 12.511719-25.203125zm-48 0c0-8.835938 7.164062-16 16-16s16 7.164062 16 16c0 8.839844-7.164062 16-16 16s-16-7.160156-16-16zm0 0"/><path d="m100.832031 197.632812c2.066407-4.238281 3.160157-8.886718 3.199219-13.601562.097656-14.898438-10.035156-27.925781-24.503906-31.492188-14.46875-3.566406-29.492188 3.253907-36.332032 16.492188-6.84375 13.238281-3.710937 29.441406 7.570313 39.175781s27.769531 10.464844 39.863281 1.761719l21.402344 17.816406v252.246094h16v-256c0-2.375-1.054688-4.628906-2.878906-6.152344zm-28.800781 2.398438c-8.835938 0-16-7.160156-16-16 0-8.835938 7.164062-16 16-16s16 7.164062 16 16c0 8.839844-7.164062 16-16 16zm0 0"/><path d="m240.03125 160.03125c15.851562.179688 29.5-11.15625 32.234375-26.773438 2.734375-15.613281-6.246094-30.914062-21.214844-36.136718s-31.515625 1.167968-39.089843 15.09375c-7.574219 13.929687-3.941407 31.292968 8.582031 41.019531l-11.863281 27.636719c-.429688 1-.648438 2.074218-.648438 3.160156v296h16v-294.351562l11.199219-26.128907c1.585937.285157 3.191406.445313 4.800781.480469zm0-48c8.835938 0 16 7.164062 16 16 0 8.839844-7.164062 16-16 16s-16-7.160156-16-16c0-8.835938 7.164062-16 16-16zm0 0"/><path d="m296.03125 216.03125c17.671875 0 32-14.324219 32-32 0-17.671875-14.328125-32-32-32-17.675781 0-32 14.328125-32 32 .039062 4.714844 1.132812 9.363281 3.199219 13.601562l-24.320313 20.246094c-1.824218 1.523438-2.882812 3.777344-2.878906 6.152344v256h16v-252.246094l21.398438-17.816406c5.40625 3.929688 11.917968 6.050781 18.601562 6.0625zm0-48c8.835938 0 16 7.164062 16 16 0 8.839844-7.164062 16-16 16s-16-7.160156-16-16c0-8.835938 7.164062-16 16-16zm0 0"/></svg>