<svg height="480pt" viewBox="0 0 480 480" width="480pt" xmlns="http://www.w3.org/2000/svg"><path d="m392 271.992188c-21.929688-.507813-43.726562 3.558593-64 11.945312v-7.625c-.382812-7.792969-4.234375-15.003906-10.496094-19.65625 33.015625-31.644531 43.476563-80.183594 26.421875-122.617188-17.050781-42.433593-58.191406-70.238281-103.921875-70.238281-45.730468 0-86.871094 27.804688-103.921875 70.238281-17.054687 42.433594-6.59375 90.972657 26.421875 122.617188-6.265625 4.652344-10.121094 11.863281-10.503906 19.65625v7.625c-20.273438-8.382812-42.070312-12.453125-64-11.945312-42.664062 0-88 14.015624-88 40v128c0 25.984374 45.335938 40 88 40 32.398438 0 60.839844-7.3125 76-19.046876 15.160156 11.734376 43.601562 19.046876 76 19.046876s60.847656-7.3125 76-19.046876c15.199219 11.742188 43.601562 19.046876 76 19.046876 42.664062 0 88-14.015626 88-40v-128c0-25.984376-45.335938-40-88-40zm0 16c43.953125 0 72 14.210937 72 24 0 9.792968-28.046875 24-72 24-26.625 0-50.976562-5.519532-64-14.253907v-19.503906c12.921875-8.695313 37.320312-14.242187 64-14.242187zm-82.105469 124.800781c-1.558593 1.742187-3.324219 3.285156-5.253906 4.601562-12.960937 9-37.730469 14.597657-64.640625 14.597657s-51.679688-5.597657-64.40625-14.398438l-.859375-.625c-.613281-.433594-1.207031-.902344-1.773437-1.398438-1.019532-.785156-1.949219-1.671874-2.785157-2.648437-1.269531-1.34375-2.035156-3.085937-2.175781-4.929687v-8.367188c16 10.25 42.585938 16.367188 72 16.367188s56.070312-6.125 72-16.367188v8.367188c-.136719 1.792968-.878906 3.484374-2.105469 4.800781zm-141.894531-112.800781c16.976562 10.707031 45.007812 16.335937 72 16.335937s55.023438-5.597656 72-16.335937v12c0 3.816406-4.59375 7.519531-7.359375 9.433593-12.960937 8.96875-37.730469 14.566407-64.640625 14.566407s-51.679688-5.597657-64.671875-14.589844c-2.734375-1.890625-7.328125-5.59375-7.328125-9.410156zm136.640625 85.441406c-12.960937 8.960937-37.730469 14.558594-64.640625 14.558594s-51.679688-5.597657-64.671875-14.589844c-2.734375-1.890625-7.328125-5.59375-7.328125-9.410156v-8.367188c16 10.25 42.585938 16.367188 72 16.367188s56.070312-6.125 72-16.367188v8.367188c0 3.816406-4.59375 7.519531-7.359375 9.433593zm0-32c-12.960937 8.960937-37.730469 14.558594-64.640625 14.558594s-51.679688-5.597657-64.671875-14.589844c-2.734375-1.890625-7.328125-5.59375-7.328125-9.410156v-8.367188c16 10.25 42.585938 16.367188 72 16.367188s56.070312-6.125 72-16.367188v8.367188c0 3.816406-4.59375 7.519531-7.359375 9.433593zm-160.640625-177.441406c0-53.019532 42.980469-96 96-96s96 42.980468 96 96c0 53.019531-42.980469 96-96 96-52.996094-.054688-95.941406-43.003907-96-96zm96 112c23.28125 0 45.976562-7.300782 64.886719-20.878907 4.480469 3.113281 7.113281 6.398438 7.113281 9.199219 0 9.792969-28.046875 24-72 24s-72-14.207031-72-24c0-2.808594 2.632812-6.09375 7.113281-9.199219 18.910157 13.578125 41.605469 20.878907 64.886719 20.878907zm-152 0c26.679688 0 51.078125 5.546874 64 14.242187v19.519531c-12.921875 8.695313-37.320312 14.238282-64 14.238282-43.953125 0-72-14.207032-72-24 0-9.789063 28.046875-24 72-24zm-72 47.664062c16.976562 10.738281 45.007812 16.335938 72 16.335938 21.929688.507812 43.726562-3.554688 64-11.925782v13.734375c-13.105469 8.753907-37.488281 14.191407-64 14.191407-26.910156 0-51.679688-5.597657-64.671875-14.589844-2.734375-1.890625-7.328125-5.59375-7.328125-9.410156zm0 32c16 10.21875 42.585938 16.335938 72 16.335938 21.941406.53125 43.75-3.574219 64-12.039063v13.847656c-13.105469 8.753907-37.488281 14.191407-64 14.191407-26.910156 0-51.679688-5.597657-64.671875-14.589844-2.734375-1.890625-7.328125-5.59375-7.328125-9.410156zm0 32c16 10.21875 42.585938 16.335938 72 16.335938 21.941406.53125 43.75-3.574219 64-12.039063v13.847656c-13.105469 8.753907-37.488281 14.191407-64 14.191407-26.910156 0-51.679688-5.597657-64.671875-14.589844-2.734375-1.890625-7.328125-5.59375-7.328125-9.410156zm0 40.335938v-8.367188c16 10.25 42.585938 16.367188 72 16.367188 21.941406.53125 43.75-3.574219 64-12.039063v4.039063c.027344 2.960937.660156 5.882812 1.863281 8.585937-10.832031 8.136719-34.878906 15.414063-65.863281 15.414063-43.953125 0-72-14.207032-72-24zm154.183594 4.921874c-1.269532-1.34375-2.039063-3.078124-2.183594-4.921874v-8.367188c16 10.25 42.585938 16.367188 72 16.367188s56-6.109376 72-16.367188v8.367188c-.144531 1.84375-.914062 3.585937-2.183594 4.929687-7.769531 9.472656-34.242187 19.070313-69.816406 19.070313s-62.046875-9.597657-69.816406-19.078126zm221.816406 19.078126c-30.984375 0-55.03125-7.277344-65.863281-15.414063 1.203125-2.703125 1.835937-5.625 1.863281-8.585937v-4c20.253906 8.445312 42.0625 12.535156 64 12 29.433594 0 56.070312-6.125 72-16.367188v8.367188c0 9.792968-28.046875 24-72 24zm64.640625-46.566407c-12.960937 8.96875-37.730469 14.566407-64.640625 14.566407-26.65625 0-51.199219-5.488282-64-14.167969v-13.832031c20.253906 8.445312 42.0625 12.535156 64 12 29.433594 0 56.070312-6.125 72-16.367188v8.367188c0 3.816406-4.59375 7.519531-7.359375 9.433593zm0-32c-12.960937 8.96875-37.730469 14.566407-64.640625 14.566407-26.65625 0-51.199219-5.488282-64-14.167969v-13.832031c20.253906 8.445312 42.0625 12.535156 64 12 29.433594 0 56.070312-6.125 72-16.367188v8.367188c0 3.816406-4.59375 7.519531-7.359375 9.433593zm0-32c-12.960937 8.96875-37.730469 14.566407-64.640625 14.566407-26.65625 0-51.199219-5.488282-64-14.167969v-13.773438c20.273438 8.382813 42.070312 12.449219 64 11.941407 26.992188 0 55.023438-5.597657 72-16.335938v8.335938c0 3.816406-4.59375 7.519531-7.359375 9.433593zm0 0"/><path d="m240 263.992188c48.601562 0 88-39.398438 88-88 0-48.601563-39.398438-88-88-88s-88 39.398437-88 88c.054688 48.582031 39.421875 87.949218 88 88zm0-160c39.765625 0 72 32.238281 72 72 0 39.765624-32.234375 72-72 72s-72-32.234376-72-72c.042969-39.746094 32.253906-71.953126 72-72zm0 0"/><path d="m117.265625 251.855469c4.210937 1.34375 8.710937-.984375 10.050781-5.195313 1.339844-4.210937-.984375-8.710937-5.195312-10.050781-33.878906-10.769531-54.824219-44.652344-49.320313-79.769531 5.507813-35.117188 35.820313-60.960938 71.367188-60.847656.375 0 .753906.019531 1.128906.058593 3.9375.019531 7.316406-2.800781 8-6.679687 6.113281-36.636719 34.601563-65.472656 71.160156-72.03125 36.5625-6.554688 73.296875 10.585937 91.757813 42.8125 1.382812 2.394531 3.902344 3.910156 6.664062 4 42.28125 1.386718 77.589844 32.675781 84.046875 74.480468 6.460938 41.808594-17.753906 82.292969-57.644531 96.375-4.167969 1.472657-6.355469 6.042969-4.886719 10.214844 1.472657 4.167969 6.042969 6.355469 10.214844 4.882813 46.3125-16.417969 74.816406-63.011719 68.34375-111.722657-6.472656-48.714843-46.15625-86.246093-95.152344-89.996093-22.355469-35.378907-63.757812-53.886719-105.03125-46.949219-41.269531 6.9375-74.347656 37.964844-83.90625 78.707031-42.367187 2.441407-76.957031 34.765625-82.253906 76.871094s20.210937 81.996094 60.65625 94.851563zm0 0"/><path d="m224 199.992188c0-4.417969-3.582031-8-8-8s-8 3.582031-8 8c.054688 14.546874 9.914062 27.226562 24 30.863281v1.136719c0 4.417968 3.582031 8 8 8s8-3.582032 8-8v-1.136719c14.113281-3.589844 23.992188-16.296875 23.992188-30.863281 0-14.5625-9.878907-27.269532-23.992188-30.863282v-30.910156c4.933594 2.835938 7.980469 8.085938 8 13.773438 0 4.417968 3.582031 8 8 8s8-3.582032 8-8c-.054688-14.546876-9.914062-27.226563-24-30.863282v-1.136718c0-4.417969-3.582031-8-8-8s-8 3.582031-8 8v1.136718c-14.113281 3.59375-23.992188 16.300782-23.992188 30.863282 0 14.566406 9.878907 27.273437 23.992188 30.863281v30.914062c-4.933594-2.835937-7.980469-8.085937-8-13.777343zm32 0c-.019531 5.691406-3.066406 10.941406-8 13.777343v-27.550781c4.933594 2.835938 7.980469 8.085938 8 13.773438zm-32-48c.019531-5.6875 3.066406-10.9375 8-13.773438v27.550781c-4.933594-2.835937-7.980469-8.085937-8-13.777343zm0 0"/></svg>