<svg height="480pt" viewBox="0 0 480 480" width="480pt" xmlns="http://www.w3.org/2000/svg"><path d="m240 287.996094c-53.019531 0-96 42.980468-96 96 0 53.019531 42.980469 96 96 96s96-42.980469 96-96c-.0625-52.992188-43.007812-95.9375-96-96zm0 176c-44.183594 0-80-35.816406-80-80s35.816406-80 80-80 80 35.816406 80 80c-.046875 44.164062-35.835938 79.953125-80 80zm0 0"/><path d="m240 343.996094c8.835938 0 16 7.164062 16 16h16c-.054688-14.546875-9.914062-27.226563-24-30.863282v-9.136718h-16v9.136718c-15.585938 4.011719-25.753906 18.996094-23.71875 34.960938 2.03125 15.964844 15.625 27.921875 31.71875 27.902344 8.835938 0 16 7.164062 16 16 0 8.835937-7.164062 16-16 16s-16-7.164063-16-16h-16c.054688 14.546875 9.914062 27.226562 24 30.863281v9.136719h16v-9.136719c15.585938-4.011719 25.753906-18.992187 23.71875-34.957031-2.03125-15.964844-15.625-27.925782-31.71875-27.90625-8.835938 0-16-7.164063-16-16 0-8.835938 7.164062-16 16-16zm0 0"/><path d="m56 343.996094c22.089844 0 40-17.90625 40-40 0-22.089844-17.910156-40-40-40s-40 17.910156-40 40c.027344 22.082031 17.917969 39.972656 40 40zm0-64c13.253906 0 24 10.746094 24 24s-10.746094 24-24 24-24-10.746094-24-24 10.746094-24 24-24zm0 0"/><path d="m56 367.996094c-30.929688 0-56 25.074218-56 56 0 30.929687 25.070312 56 56 56s56-25.070313 56-56c-.035156-30.914063-25.085938-55.964844-56-56zm0 96c-22.089844 0-40-17.90625-40-40 0-22.089844 17.910156-40 40-40s40 17.910156 40 40c-.027344 22.082031-17.917969 39.972656-40 40zm0 0"/><path d="m160 303.996094c0-13.253906-10.746094-24-24-24s-24 10.746094-24 24 10.746094 24 24 24 24-10.746094 24-24zm-24 8c-4.417969 0-8-3.582032-8-8 0-4.417969 3.582031-8 8-8s8 3.582031 8 8c0 4.417968-3.582031 8-8 8zm0 0"/><path d="m112 327.996094c-13.253906 0-24 10.746094-24 24s10.746094 24 24 24 24-10.746094 24-24-10.746094-24-24-24zm0 32c-4.417969 0-8-3.582032-8-8 0-4.417969 3.582031-8 8-8s8 3.582031 8 8c0 4.417968-3.582031 8-8 8zm0 0"/><path d="m384 303.996094c0 22.09375 17.910156 40 40 40s40-17.90625 40-40c0-22.089844-17.910156-40-40-40-22.082031.027344-39.972656 17.921875-40 40zm64 0c0 13.253906-10.746094 24-24 24s-24-10.746094-24-24 10.746094-24 24-24 24 10.746094 24 24zm0 0"/><path d="m424 367.996094c-30.929688 0-56 25.074218-56 56 0 30.929687 25.070312 56 56 56s56-25.070313 56-56c-.035156-30.914063-25.085938-55.964844-56-56zm0 96c-22.089844 0-40-17.90625-40-40 0-22.089844 17.910156-40 40-40s40 17.910156 40 40c-.027344 22.082031-17.917969 39.972656-40 40zm0 0"/><path d="m320 303.996094c0 13.253906 10.746094 24 24 24s24-10.746094 24-24-10.746094-24-24-24-24 10.746094-24 24zm32 0c0 4.417968-3.582031 8-8 8s-8-3.582032-8-8c0-4.417969 3.582031-8 8-8s8 3.582031 8 8zm0 0"/><path d="m392 351.996094c0-13.253906-10.746094-24-24-24s-24 10.746094-24 24 10.746094 24 24 24 24-10.746094 24-24zm-32 0c0-4.417969 3.582031-8 8-8s8 3.582031 8 8c0 4.417968-3.582031 8-8 8s-8-3.582032-8-8zm0 0"/><path d="m144 255.996094h176c55.914062.039062 101.839844-44.164063 103.9375-100.039063 2.101562-55.875-40.378906-103.402343-96.136719-107.558593-22.351562-35.386719-63.757812-53.898438-105.03125-46.960938-41.273437 6.933594-74.355469 37.964844-83.914062 78.710938-47.507813 2.796874-84.183594 42.851562-82.792969 90.421874 1.390625 47.566407 40.347656 85.414063 87.9375 85.425782zm.160156-160 1.097656.054687c3.9375.027344 7.320313-2.796875 8-6.679687 6.085938-36.664063 34.585938-65.53125 71.167969-72.097656 36.582031-6.566407 73.339844 10.59375 91.796875 42.851562 1.386719 2.398438 3.914063 3.914062 6.679688 4 24.101562.683594 46.855468 11.261719 62.90625 29.253906 16.054687 17.988282 23.984375 41.796875 21.925781 65.816406-4.5625 46.277344-43.765625 81.371094-90.261719 80.800782h-171.199218c-36.210938.507812-67.390626-25.4375-73.472657-61.136719-3.136719-20.777344 2.949219-41.886719 16.660157-57.808594 13.710937-15.921875 33.6875-25.074219 54.699218-25.054687zm0 0"/></svg>