<svg height="483pt" viewBox="-2 0 483 483.00819" width="483pt" xmlns="http://www.w3.org/2000/svg"><path d="m414.148438 393.839844c1.0625-1.835938 1.351562-4.023438.800781-6.070313l-24.855469-92.761719c-.839844-3.125-3.476562-5.4375-6.683594-5.859374-3.207031-.421876-6.355468 1.128906-7.972656 3.933593l-22.304688 38.636719c-34.496093-21.53125-67.171874-45.847656-97.703124-72.710938h61.449218c54.949219 0 104.894532-44.742187 107.101563-99.65625 2.5625-56.128906-40.109375-104.054687-96.160157-108-22.34375-35.386718-63.75-53.90625-105.023437-46.964843-41.273437 6.9375-74.351563 37.976562-83.894531 78.726562-13.386719.816407-26.40625 4.726563-38.023438 11.421875-12.066406-16.261718-22.890625-32.09375-31.875-47.039062-8.34375-13.582032-15.582031-27.8125-21.648437-42.550782-.175781-.332031-.378907-.644531-.605469-.945312-.246094-.476562-.535156-.925781-.871094-1.34375-.359375-.382812-.757812-.722656-1.1875-1.023438-.371094-.304687-.769531-.570312-1.191406-.800781-.492188-.230469-1.011719-.40625-1.542969-.527343-.441406-.140626-.898437-.2382818-1.359375-.2968755-.558594-.0234375-1.121094.0078125-1.671875.1054685-.363281-.003906-.722656.015625-1.082031.0625l-31.910156 8.527344c-4.269532 1.144531-6.800782 5.53125-5.65625 9.800781 4.792968 16.164063 11.453125 31.710938 19.855468 46.328125 13.300782 23.714844 28.292969 46.4375 44.855469 68-5.859375 11.871094-8.910156 24.933594-8.910156 38.175781.050781 48.578126 39.421875 87.949219 88 88h34.589844c45.132812 44.371094 95.308593 83.304688 149.496093 116l-20.597656 35.679688c-1.429687 2.476562-1.429687 5.527344 0 8 1.429688 2.476562 4.070313 4 6.925782 4 .699218.003906 1.398437-.089844 2.074218-.269531l92.726563-24.839844c2.050781-.554687 3.796875-1.898437 4.855469-3.738281zm-270.070313-294.832032h.054687c.214844 0 1.152344.0625 1.367188.0625 3.910156 0 7.246094-2.824218 7.890625-6.679687 6.101563-36.628906 34.578125-65.464844 71.128906-72.03125 36.550781-6.5625 73.28125 10.558594 91.75 42.777344 1.382813 2.398437 3.910157 3.914062 6.679688 4 24.101562.683593 46.855469 11.265625 62.910156 29.253906s23.992187 41.792969 21.945313 65.816406c-4.597657 46.277344-43.808594 81.359375-90.3125 80.800781h-80.175782c-13.597656-12.328124-27.261718-25.261718-40.679687-38.671874-30.675781-30.476563-59.410157-62.851563-86.03125-96.929688 10.296875-5.503906 21.792969-8.386719 33.472656-8.398438zm0 144c-39.746094-.042968-71.957031-32.253906-72-72 .015625-8.058593 1.402344-16.054687 4.101563-23.648437 25.664062 32.238281 53.175781 62.957031 82.402343 92 1.222657 1.226563 2.445313 2.402344 3.671875 3.625zm187 158.945313 15.007813-25.992187v-.105469l.078124-.109375c.175782-.425782.308594-.867188.402344-1.3125.214844-.515625.378906-1.050782.488282-1.601563.011718-.5-.023438-1-.105469-1.496093.085937-1.03125-.195313-2.054688-.800781-2.894532-.195313-.484375-.4375-.945312-.726563-1.378906-.347656-.367188-.726563-.699219-1.136719-1-.351562-.375-.738281-.714844-1.160156-1.015625-.039062 0-.085938 0-.128906-.039063l-.085938-.070312c-49.832031-26.761719-112.914062-76.632812-173.082031-136.847656-31.867187-31.648438-61.625-65.355469-89.078125-100.898438l-.226562-.296875c-17.179688-22.058593-32.691407-45.375-46.398438-69.75-6.324219-11.238281-11.675781-22.996093-16-35.144531l17.152344-4.59375c5.832031 13.199219 12.511718 26.003906 20 38.339844 11.296875 18.511718 23.550781 36.421875 36.710937 53.660156.066407.105469.074219.226562.144531.320312.074219.097657.242188.203126.34375.328126 28.519532 37.265624 59.539063 72.550781 92.847657 105.601562 57.601562 57.550781 116.800781 105.152344 166.671875 134.039062h.058594c.8125.449219 1.703124.746094 2.621093.882813.226563 0 .433594.0625.65625.085937.226563.023438.441407.089844.65625.089844 1.625-.019531 3.203125-.535156 4.527344-1.472656.175781-.128906.34375-.25.511719-.394531.75-.585938 1.390625-1.304688 1.882812-2.117188l16.703125-28.9375 17.785157 66.351563zm0 0"/><path d="m368.078125 435.007812h16v16h-16zm0 0"/><path d="m392.078125 435.007812h88v16h-88zm0 0"/><path d="m368.078125 467.007812h16v16h-16zm0 0"/><path d="m392.078125 467.007812h88v16h-88zm0 0"/><path d="m160.078125 307.007812h-96c-4.417969 0-8 3.582032-8 8v32c0 4.417969 3.582031 8 8 8h96c4.417969 0 8-3.582031 8-8v-32c0-4.417968-3.582031-8-8-8zm-8 32h-80v-16h80zm0 0"/><path d="m160.078125 371.007812h-96c-4.417969 0-8 3.582032-8 8v32c0 4.417969 3.582031 8 8 8h96c4.417969 0 8-3.582031 8-8v-32c0-4.417968-3.582031-8-8-8zm-8 32h-80v-16h80zm0 0"/><path d="m160.078125 435.007812h-96c-4.417969 0-8 3.582032-8 8v32c0 4.417969 3.582031 8 8 8h96c4.417969 0 8-3.582031 8-8v-32c0-4.417968-3.582031-8-8-8zm-8 32h-80v-16h80zm0 0"/></svg>