<svg height="480pt" viewBox="0 0 480.01198 480" width="480pt" xmlns="http://www.w3.org/2000/svg"><path d="m383.800781 272.40625c-16.671875-26.375-44.3125-43.863281-75.28125-47.636719-30.972656-3.773437-62.003906 6.566407-84.519531 28.164063v-20.925782c-.207031-54.234374 32.050781-103.332031 81.910156-124.664062 4.082032 3.015625 9.015625 4.648438 14.089844 4.664062 13.253906 0 24-10.746093 24-24 0-13.257812-10.746094-24-24-24s-24 10.742188-24 24c.019531 1.980469.289062 3.949219.800781 5.863282-54.253906 24.5-89.035156 78.605468-88.800781 138.136718v40.597657c-3.101562 4.960937-5.777344 10.171875-8 15.585937v-201.65625c11.019531-3.898437 17.632812-15.167968 15.65625-26.6875-1.976562-11.519531-11.96875-19.941406-23.65625-19.941406s-21.679688 8.421875-23.65625 19.941406c-1.976562 11.519532 4.636719 22.789063 15.65625 26.6875v219.015625c-2.714844.5-5.382812 1.121094-8 1.863281v-75.40625c.234375-59.53125-34.546875-113.636718-88.800781-138.136718.511719-1.914063.78125-3.882813.800781-5.863282 0-13.257812-10.746094-24-24-24s-24 10.742188-24 24c0 13.253907 10.746094 24 24 24 5.074219-.015624 10.007812-1.648437 14.089844-4.664062 49.859375 21.332031 82.117187 70.429688 81.910156 124.664062v81.71875c-34.453125 17.550782-53.390625 55.554688-46.652344 93.625 6.738282 38.074219 37.566406 67.273438 75.949219 71.933594 3.550781.441406 7.125.683594 10.703125.722656h176c55.914062.035157 101.839844-44.167968 103.9375-100.042968 2.101562-55.875-40.378906-103.398438-96.136719-107.558594zm-63.800781-192.398438c4.417969 0 8 3.578126 8 8 0 4.417969-3.582031 8-8 8s-8-3.582031-8-8c0-4.421874 3.582031-8 8-8zm-264 8c0-4.421874 3.582031-8 8-8s8 3.578126 8 8c0 4.417969-3.582031 8-8 8s-8-3.582031-8-8zm136-32c4.417969 0 8 3.578126 8 8 0 4.417969-3.582031 8-8 8s-8-3.582031-8-8c0-4.421874 3.582031-8 8-8zm181.472656 408h-171.199218c-36.210938.503907-67.390626-25.441406-73.472657-61.136718-3.136719-20.777344 2.949219-41.890625 16.660157-57.8125 13.710937-15.921875 33.6875-25.070313 54.699218-25.050782l1.097656.054688c3.976563.140625 7.425782-2.738281 8-6.679688 6.117188-36.628906 34.601563-65.457031 71.152344-72.019531 36.550782-6.558593 73.28125 10.5625 91.757813 42.777344 1.382812 2.402344 3.910156 3.914063 6.679687 4 24.109375.667969 46.875 11.242187 62.941406 29.230469 16.0625 17.992187 24 41.804687 21.945313 65.835937-4.5625 46.273438-43.765625 81.367188-90.261719 80.800781zm0 0"/><path d="m192 32.007812c4.417969 0 8-3.582031 8-8v-16c0-4.421874-3.582031-7.9999995-8-7.9999995s-8 3.5781255-8 7.9999995v16c0 4.417969 3.582031 8 8 8zm0 0"/><path d="m158.054688 41.375c3.140624 3.03125 8.128906 2.988281 11.214843-.097656 3.085938-3.085938 3.128907-8.078125.097657-11.214844l-11.3125-11.3125c-3.136719-3.03125-8.128907-2.988281-11.214844.097656-3.085938 3.085938-3.128906 8.074219-.097656 11.214844zm0 0"/><path d="m136 72.007812h16c4.417969 0 8-3.582031 8-8 0-4.421874-3.582031-8-8-8h-16c-4.417969 0-8 3.578126-8 8 0 4.417969 3.582031 8 8 8zm0 0"/><path d="m146.742188 97.949219c-2.078126 2.007812-2.910157 4.984375-2.179688 7.78125s2.917969 4.980469 5.714844 5.714843c2.796875.730469 5.769531-.105468 7.777344-2.183593l11.3125-11.3125c3.03125-3.136719 2.988281-8.128907-.097657-11.214844-3.085937-3.085937-8.074219-3.128906-11.214843-.097656zm0 0"/><path d="m214.632812 86.636719c-3.125 3.125-3.125 8.1875 0 11.3125l11.3125 11.3125c3.136719 3.03125 8.128907 2.988281 11.214844-.097657 3.085938-3.085937 3.128906-8.074218.097656-11.214843l-11.3125-11.3125c-3.125-3.121094-8.1875-3.121094-11.3125 0zm0 0"/><path d="m224 64.007812c0 4.417969 3.582031 8 8 8h16c4.417969 0 8-3.582031 8-8 0-4.421874-3.582031-8-8-8h-16c-4.417969 0-8 3.578126-8 8zm0 0"/><path d="m220.289062 43.71875c2.121094 0 4.15625-.84375 5.65625-2.34375l11.3125-11.3125c3.03125-3.140625 2.988282-8.128906-.097656-11.214844-3.085937-3.085937-8.078125-3.128906-11.214844-.097656l-11.3125 11.3125c-2.289062 2.289062-2.972656 5.726562-1.734374 8.714844 1.238281 2.992187 4.15625 4.941406 7.390624 4.941406zm0 0"/><path d="m320 56.007812c4.417969 0 8-3.582031 8-8v-16c0-4.421874-3.582031-8-8-8s-8 3.578126-8 8v16c0 4.417969 3.582031 8 8 8zm0 0"/><path d="m286.054688 65.375c2.011718 2.078125 4.984374 2.914062 7.78125 2.179688 2.796874-.730469 4.980468-2.914063 5.714843-5.710938.730469-2.796875-.101562-5.773438-2.183593-7.78125l-11.3125-11.3125c-2.007813-2.078125-4.980469-2.914062-7.777344-2.179688-2.796875.730469-4.984375 2.914063-5.714844 5.710938s.101562 5.773438 2.179688 7.78125zm0 0"/><path d="m264 96.007812h16c4.417969 0 8-3.582031 8-8 0-4.421874-3.582031-8-8-8h-16c-4.417969 0-8 3.578126-8 8 0 4.417969 3.582031 8 8 8zm0 0"/><path d="m312 128.007812v16c0 4.417969 3.582031 8 8 8s8-3.582031 8-8v-16c0-4.421874-3.582031-8-8-8s-8 3.578126-8 8zm0 0"/><path d="m342.632812 110.636719c-3.125 3.125-3.125 8.1875 0 11.3125l11.3125 11.3125c3.136719 3.03125 8.128907 2.988281 11.214844-.097657 3.085938-3.085937 3.128906-8.074218.097656-11.214843l-11.3125-11.3125c-3.125-3.121094-8.1875-3.121094-11.3125 0zm0 0"/><path d="m348.289062 67.71875c2.121094 0 4.15625-.84375 5.65625-2.34375l11.3125-11.3125c2.078126-2.007812 2.910157-4.984375 2.179688-7.78125s-2.917969-4.980469-5.714844-5.710938c-2.796875-.734374-5.769531.101563-7.777344 2.179688l-11.3125 11.3125c-2.289062 2.289062-2.972656 5.726562-1.734374 8.714844 1.238281 2.992187 4.15625 4.941406 7.390624 4.941406zm0 0"/><path d="m352 88.007812c0 4.417969 3.582031 8 8 8h16c4.417969 0 8-3.582031 8-8 0-4.421874-3.582031-8-8-8h-16c-4.417969 0-8 3.578126-8 8zm0 0"/><path d="m64 56.007812c4.417969 0 8-3.582031 8-8v-16c0-4.421874-3.582031-8-8-8s-8 3.578126-8 8v16c0 4.417969 3.582031 8 8 8zm0 0"/><path d="m92.289062 67.71875c2.121094 0 4.15625-.84375 5.65625-2.34375l11.3125-11.3125c2.078126-2.007812 2.910157-4.984375 2.179688-7.78125s-2.917969-4.980469-5.714844-5.710938c-2.796875-.734374-5.769531.101563-7.777344 2.179688l-11.3125 11.3125c-2.289062 2.289062-2.972656 5.726562-1.734374 8.714844 1.238281 2.992187 4.15625 4.941406 7.390624 4.941406zm0 0"/><path d="m96 88.007812c0 4.417969 3.582031 8 8 8h16c4.417969 0 8-3.582031 8-8 0-4.421874-3.582031-8-8-8h-16c-4.417969 0-8 3.578126-8 8zm0 0"/><path d="m64 120.007812c-4.417969 0-8 3.578126-8 8v16c0 4.417969 3.582031 8 8 8s8-3.582031 8-8v-16c0-4.421874-3.582031-8-8-8zm0 0"/><path d="m30.054688 110.636719-11.3125 11.3125c-2.078126 2.007812-2.910157 4.984375-2.179688 7.78125s2.917969 4.980469 5.714844 5.714843c2.796875.730469 5.769531-.105468 7.777344-2.183593l11.3125-11.3125c2.082031-2.007813 2.914062-4.980469 2.183593-7.777344-.734375-2.800781-2.917969-4.984375-5.714843-5.714844-2.796876-.734375-5.769532.101563-7.78125 2.179688zm0 0"/><path d="m30.054688 65.375c2.011718 2.078125 4.984374 2.914062 7.78125 2.179688 2.796874-.730469 4.980468-2.914063 5.714843-5.710938.730469-2.796875-.101562-5.773438-2.183593-7.78125l-11.3125-11.3125c-2.007813-2.078125-4.980469-2.914062-7.777344-2.179688-2.796875.730469-4.984375 2.914063-5.714844 5.710938s.101562 5.773438 2.179688 7.78125zm0 0"/><path d="m32 88.007812c0-4.421874-3.582031-8-8-8h-16c-4.417969 0-8 3.578126-8 8 0 4.417969 3.582031 8 8 8h16c4.417969 0 8-3.582031 8-8zm0 0"/></svg>