<svg height="480pt" viewBox="0 0 480 479" width="480pt" xmlns="http://www.w3.org/2000/svg"><path d="m472 352.5c4.417969 0 8-3.582031 8-8v-48c0-4.417969-3.582031-8-8-8h-96c-4.417969 0-8 3.582031-8 8v16h-56v-32c0-4.417969-3.582031-8-8-8h-56v-16h72c55.914062.035156 101.839844-44.167969 103.9375-100.042969 2.101562-55.875-40.378906-103.398437-96.136719-107.558593-22.351562-35.382813-63.753906-53.898438-105.03125-46.960938-41.273437 6.933594-74.351562 37.96875-83.90625 78.714844-47.503906 2.796875-84.179687 42.847656-82.792969 90.417968 1.390626 47.566407 40.34375 85.410157 87.929688 85.429688h88v16h-56c-4.417969 0-8 3.582031-8 8v32h-56v-16c0-4.417969-3.582031-8-8-8h-96c-4.417969 0-8 3.582031-8 8v48c0 4.417969 3.582031 8 8 8h40v64h-40c-4.417969 0-8 3.582031-8 8v48c0 4.417969 3.582031 8 8 8h96c4.417969 0 8-3.582031 8-8v-48c0-4.417969-3.582031-8-8-8h-40v-64h40c4.417969 0 8-3.582031 8-8v-16h56v16c0 4.417969 3.582031 8 8 8h56v64h-40c-4.417969 0-8 3.582031-8 8v48c0 4.417969 3.582031 8 8 8h96c4.417969 0 8-3.582031 8-8v-48c0-4.417969-3.582031-8-8-8h-40v-64h56c4.417969 0 8-3.582031 8-8v-16h56v16c0 4.417969 3.582031 8 8 8h40v64h-40c-4.417969 0-8 3.582031-8 8v48c0 4.417969 3.582031 8 8 8h96c4.417969 0 8-3.582031 8-8v-48c0-4.417969-3.582031-8-8-8h-40v-64zm-399.199219-173.144531c-3.132812-20.777344 2.953125-41.886719 16.664063-57.804688 13.710937-15.921875 33.683594-25.070312 54.695312-25.050781.191406 0 1.078125.054688 1.230469.054688 3.910156 0 7.246094-2.824219 7.890625-6.679688 6.101562-36.648438 34.589844-65.503906 71.160156-72.066406 36.570313-6.5625 73.316406 10.578125 91.78125 42.820312 1.386719 2.398438 3.914063 3.914063 6.679688 4 24.101562.679688 46.855468 11.261719 62.90625 29.253906 16.054687 17.988282 23.984375 41.796876 21.925781 65.816407-4.59375 46.28125-43.808594 81.363281-90.308594 80.800781h-171.128906c-36.214844.5-67.402344-25.445312-73.496094-61.144531zm23.199219 285.144531h-80v-32h80zm0-128h-80v-32h80zm184 128h-80v-32h80zm16-128h-112v-48h112zm168 128h-80v-32h80zm-80-160h80v32h-80zm0 0"/></svg>