<svg height="480pt" viewBox="0 0 480 480" width="480pt" xmlns="http://www.w3.org/2000/svg"><path d="m472 399.996094h-56v-72c0-4.417969-3.582031-8-8-8h-88v-64c55.914062.039062 101.839844-44.164063 103.9375-100.039063 2.101562-55.875-40.378906-103.402343-96.136719-107.558593-22.351562-35.386719-63.757812-53.898438-105.03125-46.960938-41.273437 6.933594-74.355469 37.964844-83.914062 78.710938-47.507813 2.796874-84.183594 42.851562-82.792969 90.421874 1.390625 47.566407 40.347656 85.414063 87.9375 85.425782h16v64h-88c-4.417969 0-8 3.582031-8 8v72h-56c-4.417969 0-8 3.582031-8 8v64c0 4.417968 3.582031 8 8 8h128c4.417969 0 8-3.582032 8-8v-64c0-4.417969-3.582031-8-8-8h-56v-64h88c4.417969 0 8-3.582032 8-8v-72h56v144h-56c-4.417969 0-8 3.582031-8 8v64c0 4.417968 3.582031 8 8 8h128c4.417969 0 8-3.582032 8-8v-64c0-4.417969-3.582031-8-8-8h-56v-144h56v72c0 4.417968 3.582031 8 8 8h88v64h-56c-4.417969 0-8 3.582031-8 8v64c0 4.417968 3.582031 8 8 8h128c4.417969 0 8-3.582032 8-8v-64c0-4.417969-3.582031-8-8-8zm-344 64h-112v-48h112zm168 0h-112v-48h112zm-223.199219-285.136719c-3.136719-20.777344 2.949219-41.886719 16.660157-57.808594 13.710937-15.921875 33.6875-25.074219 54.699218-25.054687l1.097656.054687c3.910157-.050781 7.25-2.839843 8-6.679687 6.085938-36.664063 34.585938-65.53125 71.167969-72.097656 36.582031-6.566407 73.339844 10.59375 91.796875 42.851562 1.386719 2.398438 3.914063 3.914062 6.679688 4 24.101562.683594 46.855468 11.261719 62.90625 29.253906 16.054687 17.988282 23.984375 41.796875 21.925781 65.816406-4.5625 46.277344-43.765625 81.371094-90.261719 80.800782h-171.199218c-36.210938.507812-67.390626-25.4375-73.472657-61.136719zm391.199219 285.136719h-112v-48h112zm0 0"/></svg>