<svg height="480pt" viewBox="0 0 480.0636 480" width="480pt" xmlns="http://www.w3.org/2000/svg"><path d="m400 161.457031v-105.425781c0-4.417969-3.582031-8-8-8h-32c-4.417969 0-8 3.582031-8 8v109.601562c-5.554688 1.941407-10.910156 4.410157-16 7.367188v-84.96875c0-4.417969-3.582031-8-8-8h-32c-4.417969 0-8 3.582031-8 8v186.960938c-5.257812-1.261719-10.609375-2.113282-16-2.550782v-136.410156c0-4.417969-3.582031-8-8-8h-32c-4.417969 0-8 3.582031-8 8v96.175781c-5.183594-2.171875-10.535156-3.917969-16-5.222656v-58.953125c0-4.417969-3.582031-8-8-8h-32c-4.417969 0-8 3.582031-8 8v58.847656c-38.328125 8.988282-68.234375 38.957032-77.144531 77.304688-47.507813 2.796875-84.183594 42.851562-82.792969 90.421875 1.390625 47.566406 40.347656 85.414062 87.9375 85.425781h176c32.183594.050781 62.570312-14.824219 82.269531-40.273438 19.699219-25.445312 26.488281-58.589843 18.378907-89.734374 33.988281 7.046874 69.136718-4.820313 91.902343-31.023438 22.765625-26.207031 29.597657-62.664062 17.871094-95.335938-11.726563-32.671874-40.1875-56.460937-74.421875-62.207031zm-16-97.425781v96c-5.363281.011719-10.714844.46875-16 1.367188v-97.367188zm-80 32h16v88.59375c-6.097656 5.46875-11.476562 11.691406-16 18.519531zm-64 48h16v109.199219c-4.914062-4.667969-10.273438-8.847657-16-12.480469zm-64 32h16v48.511719c-2.664062-.207031-5.304688-.511719-8-.511719s-5.351562.144531-8 .34375zm175.734375 207.199219c-4.597656 46.277343-43.808594 81.359375-90.308594 80.800781h-171.128906c-36.214844.5-67.402344-25.441406-73.496094-61.144531-3.132812-20.773438 2.953125-41.882813 16.664063-57.804688 13.710937-15.921875 33.683594-25.066406 54.695312-25.050781l1.230469.054688c3.910156 0 7.246094-2.824219 7.890625-6.679688 6.117188-36.628906 34.601562-65.457031 71.152344-72.015625 36.550781-6.5625 73.285156 10.5625 91.757812 42.777344 1.375 2.402343 3.898438 3.917969 6.664063 4 8.796875.289062 17.496093 1.882812 25.824219 4.726562.285156.101563.570312.1875.863281.257813 1.800781.632812 3.519531 1.40625 5.257812 2.152344 20.621094 8.789062 37.070313 25.175781 45.941407 45.757812l.089843.226562c5.667969 13.214844 8.039063 27.609376 6.902344 41.941407zm32.265625-47.199219c-8.839844.007812-17.613281-1.488281-25.953125-4.421875-10.234375-21.820313-27.78125-39.367187-49.597656-49.601563-2.933594-8.347656-4.4375-17.128906-4.449219-25.976562-.019531-23.886719 10.644531-46.535156 29.070312-61.734375 23.910157-19.667969 57.011719-23.789063 85.011719-10.585937 28 13.203124 45.882813 41.363281 45.917969 72.320312-.054688 44.160156-35.839844 79.949219-80 80zm0 0"/><path d="m416 224.03125h-32c-4.417969 0-8 3.582031-8 8s3.582031 8 8 8h12.6875l-46.625 46.625c-2.078125 2.007812-2.914062 4.984375-2.179688 7.78125.730469 2.796875 2.917969 4.980469 5.714844 5.710938 2.796875.734374 5.769532-.101563 7.777344-2.179688l46.625-46.625v12.6875c0 4.417969 3.582031 8 8 8s8-3.582031 8-8v-32c0-4.417969-3.582031-8-8-8zm0 0"/><path d="m0 .03125h16v16h-16zm0 0"/><path d="m24 .03125h128v16h-128zm0 0"/><path d="m0 24.03125h16v16h-16zm0 0"/><path d="m24 24.03125h128v16h-128zm0 0"/><path d="m0 48.03125h16v16h-16zm0 0"/><path d="m24 48.03125h72v16h-72zm0 0"/><path d="m0 72.03125h16v16h-16zm0 0"/><path d="m24 72.03125h72v16h-72zm0 0"/></svg>