<svg height="480pt" viewBox="0 0 480.03243 480" width="480pt" xmlns="http://www.w3.org/2000/svg"><path d="m72.03125 376.039062c-17.671875 0-32 14.328126-32 32 0 17.671876 14.328125 32 32 32 17.675781 0 32-14.328124 32-32 0-17.671874-14.324219-32-32-32zm0 48c-8.835938 0-16-7.164062-16-16 0-8.835937 7.164062-16 16-16s16 7.164063 16 16c0 8.835938-7.164062 16-16 16zm0 0"/><path d="m64.03125 344.039062v16c0 4.417969 3.582031 8 8 8s8-3.582031 8-8v-16c0-4.417968-3.582031-8-8-8s-8 3.582032-8 8zm0 0"/><path d="m21.121094 357.125c-3.125 3.125-3.125 8.191406 0 11.3125l11.3125 11.3125c3.136718 3.03125 8.128906 2.988281 11.214844-.097656 3.085937-3.085938 3.128906-8.074219.097656-11.214844l-11.3125-11.3125c-3.125-3.121094-8.1875-3.121094-11.3125 0zm0 0"/><path d="m32.03125 408.039062c0-4.417968-3.582031-8-8-8h-16c-4.417969 0-8 3.582032-8 8 0 4.417969 3.582031 8 8 8h16c4.417969 0 8-3.582031 8-8zm0 0"/><path d="m32.433594 436.328125-11.3125 11.308594c-2.082032 2.011719-2.914063 4.984375-2.183594 7.78125.734375 2.796875 2.917969 4.980469 5.714844 5.714843 2.796875.730469 5.773437-.101562 7.78125-2.183593l11.3125-11.3125c3.03125-3.136719 2.988281-8.125-.097656-11.210938-3.085938-3.085937-8.078126-3.132812-11.214844-.097656zm0 0"/><path d="m72.03125 448.039062c-4.417969 0-8 3.582032-8 8v16c0 4.417969 3.582031 8 8 8s8-3.582031 8-8v-16c0-4.417968-3.582031-8-8-8zm0 0"/><path d="m111.632812 436.328125c-3.140624-3.035156-8.128906-2.988281-11.214843.097656-3.085938 3.085938-3.128907 8.074219-.097657 11.210938l11.3125 11.3125c3.136719 3.03125 8.128907 2.988281 11.214844-.097657 3.085938-3.085937 3.128906-8.074218.097656-11.214843zm0 0"/><path d="m136.03125 400.039062h-16c-4.417969 0-8 3.582032-8 8 0 4.417969 3.582031 8 8 8h16c4.417969 0 8-3.582031 8-8 0-4.417968-3.582031-8-8-8zm0 0"/><path d="m111.632812 357.125-11.3125 11.3125c-2.078124 2.007812-2.914062 4.984375-2.179687 7.78125.730469 2.796875 2.914063 4.980469 5.710937 5.714844 2.796876.730468 5.773438-.101563 7.78125-2.183594l11.3125-11.3125c3.03125-3.136719 2.988282-8.128906-.097656-11.214844-3.085937-3.085937-8.078125-3.128906-11.214844-.097656zm0 0"/><path d="m216.03125 304.039062c-17.671875 0-32 14.328126-32 32 0 17.671876 14.328125 32 32 32 17.675781 0 32-14.328124 32-32 0-17.671874-14.324219-32-32-32zm0 48c-8.835938 0-16-7.164062-16-16 0-8.835937 7.164062-16 16-16s16 7.164063 16 16c0 8.835938-7.164062 16-16 16zm0 0"/><path d="m208.03125 272.039062v16c0 4.417969 3.582031 8 8 8s8-3.582031 8-8v-16c0-4.417968-3.582031-8-8-8s-8 3.582032-8 8zm0 0"/><path d="m165.121094 285.125c-3.125 3.125-3.125 8.191406 0 11.3125l11.3125 11.3125c3.136718 3.03125 8.128906 2.988281 11.214844-.097656 3.085937-3.085938 3.128906-8.074219.097656-11.214844l-11.3125-11.3125c-3.125-3.121094-8.1875-3.121094-11.3125 0zm0 0"/><path d="m176.03125 336.039062c0-4.417968-3.582031-8-8-8h-16c-4.417969 0-8 3.582032-8 8 0 4.417969 3.582031 8 8 8h16c4.417969 0 8-3.582031 8-8zm0 0"/><path d="m176.433594 364.328125-11.3125 11.308594c-2.082032 2.011719-2.914063 4.984375-2.183594 7.78125.734375 2.796875 2.917969 4.980469 5.714844 5.714843 2.796875.730469 5.773437-.101562 7.78125-2.183593l11.3125-11.3125c3.03125-3.136719 2.988281-8.125-.097656-11.210938-3.085938-3.085937-8.078126-3.132812-11.214844-.097656zm0 0"/><path d="m216.03125 376.039062c-4.417969 0-8 3.582032-8 8v16c0 4.417969 3.582031 8 8 8s8-3.582031 8-8v-16c0-4.417968-3.582031-8-8-8zm0 0"/><path d="m255.632812 364.328125c-3.140624-3.035156-8.128906-2.988281-11.214843.097656-3.085938 3.085938-3.128907 8.074219-.097657 11.210938l11.3125 11.3125c3.136719 3.03125 8.128907 2.988281 11.214844-.097657 3.085938-3.085937 3.128906-8.074218.097656-11.214843zm0 0"/><path d="m280.03125 328.039062h-16c-4.417969 0-8 3.582032-8 8 0 4.417969 3.582031 8 8 8h16c4.417969 0 8-3.582031 8-8 0-4.417968-3.582031-8-8-8zm0 0"/><path d="m244.320312 296.4375c-2.078124 2.007812-2.914062 4.984375-2.179687 7.78125.730469 2.796875 2.914063 4.980469 5.710937 5.714844 2.796876.730468 5.773438-.101563 7.78125-2.183594l11.3125-11.3125c3.03125-3.136719 2.988282-8.128906-.097656-11.214844-3.085937-3.085937-8.078125-3.128906-11.214844-.097656zm0 0"/><path d="m384.03125 464.039062h96v16h-96zm0 0"/><path d="m344.03125 464.039062h32v16h-32zm0 0"/><path d="m344.03125 440.039062h16v16h-16zm0 0"/><path d="m368.03125 440.039062h112v16h-112zm0 0"/><path d="m344.03125 416.039062h136v16h-136zm0 0"/><path d="m90.542969 256.039062h157.488281c4.417969 0 8-3.582031 8-8 0-4.417968-3.582031-8-8-8h-157.480469c-36.304687.558594-67.597656-25.425781-73.71875-61.214843-4.171875-27.652344 7.953125-55.234375 31.152344-70.851563 11.804687-8 25.789063-12.167968 40.046875-11.933594h.042969c.214843 0 1.148437.0625 1.367187.0625 3.90625 0 7.242188-2.824218 7.886719-6.679687 6.089844-36.644531 34.570313-65.5 71.136719-72.0625 36.5625-6.566406 73.300781 10.578125 91.757812 42.816406 1.378906 2.40625 3.910156 3.921875 6.683594 4 14.230469.46875 28.140625 4.367188 40.542969 11.367188 2.492187 1.488281 5.59375 1.511719 8.105469.058593 2.515624-1.453124 4.042968-4.15625 3.996093-7.058593-.046875-2.902344-1.664062-5.550781-4.222656-6.921875-13.359375-7.542969-28.21875-12.050782-43.519531-13.199219-22.34375-35.390625-63.75-53.90625-105.023438-46.96875-41.273437 6.9375-74.347656 37.972656-83.898437 78.722656-24.683594 1.453125-47.617188 13.214844-63.199219 32.414063-15.582031 19.199218-22.375 44.066406-18.71875 68.519531 7.292969 43.652344 45.324219 75.464844 89.574219 74.929687zm0 0"/><path d="m392.03125 368.039062c-.015625-6.789062-2.925781-13.25-8-17.761718v-20.480469c5.351562-4.734375 8.285156-11.628906 7.984375-18.769531-.300781-7.136719-3.804687-13.761719-9.535156-18.027344l6.320312-12.691406c23.992188-19.039063 33.308594-51.171875 23.226563-80.09375-10.082032-28.921875-37.359375-48.300782-67.988282-48.300782-30.628906 0-57.902343 19.378907-67.984374 48.300782-10.082032 28.921875-.765626 61.054687 23.226562 80.09375l6.304688 12.65625c-5.742188 4.269531-9.253907 10.898437-9.554688 18.046875-.300781 7.148437 2.636719 14.050781 8 18.785156v20.480469c-7.414062 6.613281-9.96875 17.125-6.414062 26.40625 3.554687 9.277344 12.476562 15.390625 22.414062 15.355468h48c13.257812 0 24-10.746093 24-24zm-80-56c0-4.417968 3.582031-8 8-8h48c4.417969 0 8 3.582032 8 8 0 4.417969-3.582031 8-8 8h-48c-4.417969 0-8-3.582031-8-8zm-24-88c0-26.335937 18.351562-49.113281 44.082031-54.71875 25.730469-5.605468 51.890625 7.476563 62.84375 31.425782 10.953125 23.945312 3.742188 52.292968-17.324219 68.09375-.378906.292968-.734374.613281-1.0625.957031-.554687.582031-1.015624 1.238281-1.371093 1.953125l-8.117188 16.289062h-46.097656l-8.152344-16.289062c-.355469-.714844-.816406-1.371094-1.367187-1.953125l-.082032-.078125c-.300781-.320312-.632812-.613281-.980468-.878906-14.136719-10.546875-22.4375-27.167969-22.371094-44.800782zm32 112h48v8h-48zm-8 32c0-4.417968 3.582031-8 8-8h48c4.417969 0 8 3.582032 8 8 0 4.417969-3.582031 8-8 8h-48c-4.417969 0-8-3.582031-8-8zm0 0"/><path d="m344.03125 136.039062c4.417969 0 8-3.582031 8-8v-32c0-4.417968-3.582031-8-8-8s-8 3.582032-8 8v32c0 4.417969 3.582031 8 8 8zm0 0"/><path d="m276.03125 106.253906c-3.824219 2.210938-5.136719 7.101563-2.925781 10.929688l16 27.710937c2.222656 3.792969 7.09375 5.082031 10.902343 2.882813 3.804688-2.199219 5.125-7.058594 2.953126-10.882813l-16-27.710937c-2.210938-3.828125-7.101563-5.136719-10.929688-2.929688zm0 0"/><path d="m256.894531 182.964844c3.824219 2.175781 8.683594.855468 10.882813-2.953125 2.199218-3.808594.914062-8.675781-2.882813-10.902344l-27.710937-16c-2.476563-1.449219-5.539063-1.464844-8.03125-.035156-2.488282 1.429687-4.019532 4.085937-4.015625 6.957031.007812 2.867188 1.550781 5.515625 4.046875 6.933594zm0 0"/><path d="m208.03125 224.039062c0 4.417969 3.582031 8 8 8h32c4.417969 0 8-3.582031 8-8 0-4.417968-3.582031-8-8-8h-32c-4.417969 0-8 3.582032-8 8zm0 0"/><path d="m432.03125 224.039062c0 4.417969 3.582031 8 8 8h32c4.417969 0 8-3.582031 8-8 0-4.417968-3.582031-8-8-8h-32c-4.417969 0-8 3.582032-8 8zm0 0"/><path d="m427.175781 184.039062c1.40625 0 2.785157-.371093 4-1.074218l27.710938-16c2.496093-1.417969 4.042969-4.066406 4.046875-6.933594.007812-2.871094-1.523438-5.527344-4.015625-6.957031-2.488281-1.429688-5.554688-1.414063-8.03125.035156l-27.710938 16c-3.136719 1.8125-4.664062 5.503906-3.726562 9s4.105469 5.929687 7.726562 5.929687zm0 0"/><path d="m388.03125 147.832031c3.828125 2.207031 8.71875.898438 10.929688-2.929687l16-27.710938c1.453124-2.476562 1.464843-5.542968.035156-8.03125-1.429688-2.488281-4.082032-4.023437-6.953125-4.015625-2.871094.007813-5.519531 1.550781-6.9375 4.046875l-16 27.710938c-2.210938 3.828125-.898438 8.71875 2.925781 10.929687zm0 0"/></svg>