<svg height="480pt" viewBox="0 0 480 480.00001" width="480pt" xmlns="http://www.w3.org/2000/svg"><path d="m407.855469 208.679688c-17.453125-27.957032-47.203125-45.902344-80.070313-48.304688-19.089844-30.046875-52.1875-48.285156-87.785156-48.375-8.773438-.027344-17.507812 1.105469-25.984375 3.367188-37.40625 9.59375-66.371094 39.195312-75.152344 76.800781-2.949219.1875-5.886719.523437-8.800781 1.007812l37.121094-79.199219c11.628906-24.785156 9.773437-53.796874-4.914063-76.898437-14.691406-23.101563-40.171875-37.0898438-67.550781-37.078125h-13.4375c-27.375-.015625-52.859375 13.96875-67.550781 37.066406-14.691407 23.101563-16.550781 52.105469-4.929688 76.894532l58.015625 123.792968c-1.277344 2.269532-2.433594 4.605469-3.464844 7-5.445312 12.320313-7.953124 25.742188-7.320312 39.199219 2.03125 46.320313 44.472656 84.046875 90.839844 84.046875h173.128906c4.660156-.039062 9.308594-.394531 13.921875-1.0625l50.839844 108.453125c1.316406 2.8125 4.140625 4.605469 7.242187 4.605469 3.105469 0 5.925782-1.792969 7.242188-4.605469l71.921875-153.4375c10.957031-23.292969 10.007812-50.4375-2.550781-72.90625-12.558594-22.46875-35.183594-37.503906-60.761719-40.375zm-380.609375-163c11.707031-18.527344 32.117187-29.738282 54.035156-29.679688h13.4375c21.90625-.007812 42.292969 11.183594 54.042969 29.671875s13.226562 41.699219 3.917969 61.527344l-43.160157 92c-6.480469 2.703125-12.601562 6.195312-18.222656 10.402343-5.09375 3.8125-9.75 8.175782-13.890625 13.007813l-54.085938-115.410156c-9.367187-19.816407-7.882812-43.054688 3.925782-61.519531zm292.753906 306.320312h-173.753906c-37.683594.507812-69.632813-27.601562-73.925782-65.046875-1.199218-12.257813.789063-24.613281 5.777344-35.875 1.292969-3.027344 2.816406-5.953125 4.558594-8.75.125-.203125.238281-.414063.34375-.632813 4.726562-7.480468 10.796875-14.023437 17.902344-19.296874 5.335937-4.050782 11.230468-7.308594 17.496094-9.671876 8.167968-3.152343 16.847656-4.753906 25.601562-4.726562h.097656c.214844 0 1.148438.0625 1.367188.0625 3.910156 0 7.246094-2.828125 7.886718-6.6875 5.703126-34.285156 31.121094-61.964844 64.800782-70.558594 7.128906-1.894531 14.472656-2.839844 21.847656-2.816406 31.453125.09375 60.480469 16.910156 76.199219 44.152344 1.371093 2.402344 3.898437 3.917968 6.664062 4 25.183594.78125 48.804688 12.390625 64.808594 31.847656h-2.398437c-27.375-.011719-52.855469 13.972656-67.546876 37.070312-14.6875 23.097657-16.546874 52.105469-4.925781 76.890626l13.917969 29.703124c-2.207031.175782-4.460938.335938-6.71875.335938zm136.679688-36.800781-64.679688 137.953125-64.679688-137.953125c-9.308593-19.828125-7.832031-43.039063 3.917969-61.527344s32.136719-29.679687 54.042969-29.671875h13.4375c1.378906 0 2.746094.070312 4 .144531 21.132812 1.28125 40.253906 12.972657 51.023438 31.199219 11.007812 18.183594 12.113281 40.683594 2.9375 59.855469zm0 0"/><path d="m88 117.664062 25.726562 18.695313c2.804688 2.035156 6.597657 2.035156 9.402344 0 2.800782-2.03125 3.976563-5.640625 2.910156-8.933594l-9.832031-30.257812 25.730469-18.695313c2.800781-2.039062 3.976562-5.644531 2.90625-8.941406s-4.140625-5.527344-7.605469-5.53125h-31.796875l-9.832031-30.238281c-1.082031-3.285157-4.144531-5.503907-7.601563-5.503907-3.457031 0-6.519531 2.21875-7.601562 5.503907l-9.847656 30.238281h-31.796875c-3.46875 0-6.539063 2.230469-7.613281 5.527344-1.070313 3.296875.105468 6.90625 2.90625 8.945312l25.730468 18.695313-9.824218 30.257812c-1.066407 3.292969.109374 6.902344 2.910156 8.933594 2.804687 2.035156 6.597656 2.035156 9.402344 0zm-11.625-37.664062c3.464844 0 6.539062-2.230469 7.609375-5.527344l4.015625-12.359375 4 12.359375c1.070312 3.296875 4.140625 5.527344 7.609375 5.527344h12.992187l-10.511718 7.640625c-2.800782 2.035156-3.972656 5.640625-2.90625 8.933594l4 12.371093-10.511719-7.640624c-2.804687-2.039063-6.601563-2.039063-9.40625 0l-10.511719 7.640624 4-12.371093c1.066406-3.292969-.105468-6.898438-2.90625-8.933594l-10.464844-7.640625zm0 0"/><path d="m472 0h-192v16h184v184h16v-192c0-4.417969-3.582031-8-8-8zm0 0"/><path d="m432 200h16v-160c0-4.417969-3.582031-8-8-8h-160v16h152zm0 0"/><path d="m16 280h-16v192c0 4.417969 3.582031 8 8 8h192v-16h-184zm0 0"/><path d="m48 280h-16v160c0 4.417969 3.582031 8 8 8h160v-16h-152zm0 0"/><path d="m392 240c-26.507812 0-48 21.492188-48 48s21.492188 48 48 48 48-21.492188 48-48c-.03125-26.496094-21.503906-47.96875-48-48zm0 80c-17.671875 0-32-14.328125-32-32s14.328125-32 32-32 32 14.328125 32 32-14.328125 32-32 32zm0 0"/></svg>