<svg height="480pt" viewBox="0 0 480.01198 480" width="480pt" xmlns="http://www.w3.org/2000/svg"><path d="m383.800781 272.40625c-22.351562-35.386719-63.753906-53.898438-105.03125-46.964844-41.273437 6.9375-74.351562 37.96875-83.90625 78.714844-47.503906 2.796875-84.179687 42.851562-82.792969 90.417969 1.390626 47.566406 40.34375 85.414062 87.929688 85.433593h176c55.914062.035157 101.839844-44.167968 103.9375-100.042968 2.101562-55.875-40.378906-103.398438-96.136719-107.558594zm-10.375 191.601562h-171.128906c-36.214844.5-67.402344-25.445312-73.496094-61.144531-3.132812-20.777343 2.953125-41.886719 16.664063-57.808593 13.710937-15.917969 33.683594-25.066407 54.695312-25.046876l1.230469.054688c3.910156 0 7.246094-2.824219 7.890625-6.679688 6.117188-36.628906 34.601562-65.457031 71.152344-72.019531 36.550781-6.558593 73.285156 10.5625 91.757812 42.777344 1.382813 2.402344 3.910156 3.914063 6.679688 4 24.105468.675781 46.867187 11.25 62.925781 29.242187 16.058594 17.988282 23.992187 41.796876 21.9375 65.824219-4.59375 46.277344-43.808594 81.363281-90.308594 80.800781zm0 0"/><path d="m168 288.007812c4.417969 0 8-3.582031 8-8v-73.320312c73.480469-7.90625 128-51.203125 128-102.679688 0-57.347656-68.183594-103.9999995-152-103.9999995s-152 46.6523435-152 103.9999995c0 43.542969 39.695312 82.445313 99.097656 97.453126l62.503906 83.34375c1.507813 2.015624 3.878907 3.203124 6.398438 3.203124zm-8-32-49.832031-66.402343c-1.121094-1.496094-2.734375-2.550781-4.550781-2.984375-53.617188-12.757813-89.617188-45.941406-89.617188-82.613282 0-48.523437 61.007812-88 136-88s136 39.476563 136 88c0 44.75-51.839844 82.328126-120.585938 87.398438-4.1875.304688-7.425781 3.800781-7.414062 8zm0 0"/><path d="m72 64.007812h16v16h-16zm0 0"/><path d="m96 64.007812h136v16h-136zm0 0"/><path d="m72 96.007812h160v16h-160zm0 0"/><path d="m72 128.007812h128v16h-128zm0 0"/><path d="m208 128.007812h24v16h-24zm0 0"/><path d="m216 320.007812h16v16h-16zm0 0"/><path d="m248 320.007812h128v16h-128zm0 0"/><path d="m216 352.007812h160v16h-160zm0 0"/><path d="m216 384.007812h160v16h-160zm0 0"/><path d="m216 416.007812h120v16h-120zm0 0"/><path d="m344 416.007812h32v16h-32zm0 0"/></svg>