<svg height="479pt" viewBox="0 0 479.99778 479" width="479pt" xmlns="http://www.w3.org/2000/svg"><path d="m32 368.492188h16v-16h16v-16h-24c-4.417969 0-8 3.582031-8 8zm0 0"/><path d="m288 344.492188v24h16v-16h16v-16h-24c-4.417969 0-8 3.582031-8 8zm0 0"/><path d="m472 438.730469v-102.238281c0-13.253907-10.746094-24-24-24h-72v-32c0-4.417969-3.582031-8-8-8h-120v-16h72c55.875-.019532 101.742188-44.210938 103.839844-100.050782 2.097656-55.835937-40.324219-103.34375-96.039063-107.558594-22.355469-35.378906-63.761719-53.882812-105.03125-46.945312s-74.347656 37.964844-83.90625 78.707031c-47.503906 2.796875-84.183593 42.851563-82.792969 90.417969 1.390626 47.566406 40.339844 85.410156 87.929688 85.429688h88v16h-120c-4.417969 0-8 3.582031-8 8v32h-72c-13.257812 0-24 10.746093-24 24v102.238281c-7.417969 6.613281-9.972656 17.125-6.417969 26.40625 3.554688 9.277343 12.480469 15.390625 22.417969 15.355469h176c9.9375.035156 18.859375-6.078126 22.414062-15.355469 3.554688-9.28125 1.003907-19.792969-6.414062-26.40625v-102.238281c0-13.253907-10.746094-24-24-24h-72v-24h240v24h-72c-13.257812 0-24 10.746093-24 24v102.238281c-7.417969 6.613281-9.972656 17.125-6.417969 26.40625 3.554688 9.277343 12.480469 15.390625 22.417969 15.355469h176c9.9375.035156 18.859375-6.078126 22.414062-15.355469 3.554688-9.28125 1.003907-19.792969-6.414062-26.40625zm-328-198.238281c-39.765625-.046876-71.964844-32.320313-71.917969-72.082032.046875-39.765625 32.320313-71.964844 72.085938-71.917968.136719 0 .976562.054687 1.125.054687 3.953125.054687 7.351562-2.78125 8-6.679687 6.117187-36.636719 34.605469-65.472657 71.164062-72.027344 36.5625-6.554688 73.292969 10.582031 91.757813 42.8125 1.382812 2.394531 3.902344 3.90625 6.664062 4 47.804688 1.808594 85.398438 41.496094 84.613282 89.328125-.78125 47.835937-39.652344 86.269531-87.492188 86.511719h-72v-40h88c4.417969 0 8-3.582032 8-8v-64c0-4.417969-3.582031-8-8-8h-192c-4.417969 0-8 3.582031-8 8v64c0 4.417968 3.582031 8 8 8h88v40zm8-56v-48h176v48zm48 280h-176c-4.417969 0-8-3.582032-8-8 0-4.417969 3.582031-8 8-8h176c4.417969 0 8 3.582031 8 8 0 4.417968-3.582031 8-8 8zm0-128v96h-176v-96c0-4.417969 3.582031-8 8-8h160c4.417969 0 8 3.582031 8 8zm80 0c0-4.417969 3.582031-8 8-8h160c4.417969 0 8 3.582031 8 8v96h-176zm176 128h-176c-4.417969 0-8-3.582032-8-8 0-4.417969 3.582031-8 8-8h176c4.417969 0 8 3.582031 8 8 0 4.417968-3.582031 8-8 8zm0 0"/></svg>