<svg height="480pt" viewBox="0 0 480 480.11133" width="480pt" xmlns="http://www.w3.org/2000/svg"><path d="m368.042969 151.347656c-.097657-54.203125-42.042969-99.132812-96.113281-102.949218-22.34375-35.386719-63.746094-53.898438-105.015626-46.960938-41.273437 6.9375-74.347656 37.964844-83.894531 78.710938-24.6875 1.453124-47.621093 13.21875-63.203125 32.417968-15.582031 19.199219-22.375 44.0625-18.71875 68.519532 7.289063 43.652343 45.324219 75.464843 89.578125 74.925781h76.863281c-26.519531 84.3125 20.347657 174.15625 104.664063 200.648437 84.320313 26.496094 174.148437-20.398437 200.621094-104.722656 26.46875-84.328125-20.449219-174.140625-104.78125-200.589844zm-277.367188 88.664063c-36.304687.554687-67.597656-25.433594-73.722656-61.222657-4.164063-27.648437 7.964844-55.226562 31.160156-70.839843 11.804688-8 25.785157-12.167969 40.039063-11.9375h.050781c.214844 0 1.152344.066406 1.367187.066406 3.90625-.003906 7.242188-2.828125 7.886719-6.679687 6.097657-36.636719 34.574219-65.484376 71.128907-72.050782 36.554687-6.5625 73.289062 10.566406 91.753906 42.792969 1.382812 2.402344 3.914062 3.917969 6.6875 4 45.640625 1.296875 82.613281 37.46875 84.902344 83.074219-73.886719-14.992188-148.203126 23.683594-178.320313 92.796875zm229.476563 208c-79.527344 0-144-64.46875-144-144 0-79.527344 64.472656-144 144-144 79.53125 0 144 64.472656 144 144-.089844 79.492187-64.507813 143.910156-144 144zm0 0"/><path d="m310.777344 294.636719c-12.65625 12.09375-32.589844 12.09375-45.246094 0-6.023438-5.984375-9.402344-14.132813-9.378906-22.625 0-4.417969-3.582032-8-8-8-4.417969 0-8 3.582031-8 8 .003906 19.414062 11.699218 36.910156 29.632812 44.335937 17.933594 7.429688 38.578125 3.324219 52.304688-10.398437 2.078125-2.007813 2.914062-4.984375 2.183594-7.78125-.734376-2.796875-2.917969-4.980469-5.714844-5.710938-2.796875-.734375-5.773438.101563-7.78125 2.179688zm0 0"/><path d="m344.386719 316.933594c23.847656-29.851563 20.226562-73.132813-8.253907-98.605469-28.476562-25.472656-71.894531-24.265625-98.910156 2.753906-27.019531 27.015625-28.226562 70.433594-2.753906 98.910157 25.472656 28.480468 68.753906 32.101562 98.605469 8.253906l62.542969 62.542968c3.140624 3.03125 8.128906 2.988282 11.214843-.097656 3.085938-3.085937 3.128907-8.074218.097657-11.214844zm-95.832031-5.320313c-21.867188-21.871093-21.867188-57.328125.003906-79.195312 21.867187-21.867188 57.324218-21.867188 79.191406 0 21.871094 21.867187 21.871094 57.324219.003906 79.195312-21.882812 21.839844-57.316406 21.839844-79.199218 0zm0 0"/><path d="m104.152344 320.011719c-21.199219-.042969-40.597656 11.914062-50.089844 30.871093-9.492188 18.957032-7.445312 41.652344 5.292969 58.601563l-56.859375 56.871094c-2.078125 2.011719-2.910156 4.984375-2.179688 7.78125.730469 2.796875 2.917969 4.980469 5.714844 5.714843 2.796875.730469 5.769531-.101562 7.777344-2.183593l56.875-56.855469c19.503906 14.628906 46.230468 14.957031 66.089844.8125 19.855468-14.148438 28.28125-39.515625 20.828124-62.730469-7.453124-23.210937-29.066406-38.9375-53.449218-38.882812zm0 96c-10.597656.007812-20.765625-4.207031-28.253906-11.710938-13.496094-13.492187-15.582032-34.644531-4.976563-50.511719 10.601563-15.871093 30.941406-22.035156 48.574219-14.726562 17.628906 7.308594 27.640625 26.054688 23.910156 44.769531-3.730469 18.71875-20.167969 32.191407-39.253906 32.179688zm0 0"/></svg>