<svg height="480pt" viewBox="0 0 480 480.09004" width="480pt" xmlns="http://www.w3.org/2000/svg"><path d="m383.84375 272.488281c-6.914062-10.867187-15.78125-20.363281-26.160156-28 6.839844-19.402343 10.34375-39.824219 10.363281-60.398437.042969-93.179688-69.570313-171.683594-162.085937-182.78125-92.515626-11.097656-178.722657 48.714844-200.714844 139.257812-21.996094 90.546875 27.167968 183.238282 114.464844 215.820313-12.183594 27.199219-9.734376 58.722656 6.496093 83.714843 16.234375 24.996094 44.035157 40.050782 73.839844 39.988282h176c55.914063.035156 101.835937-44.167969 103.9375-100.042969 2.097656-55.875-40.378906-103.398437-96.140625-107.558594zm-367.796875-88.398437c0-92.785156 75.214844-168 168-168 92.78125 0 168 75.214844 168 168-.019531 17.605468-2.832031 35.09375-8.328125 51.816406-28.386719-14.867188-62.0625-15.738281-91.179688-2.367188-29.121093 13.375-50.398437 39.484376-57.621093 70.703126-27.085938 1.617187-51.902344 15.644531-67.257813 38.015624-67.046875-23.632812-111.816406-87.078124-111.613281-158.167968zm357.46875 280h-171.199219c-36.207031.507812-67.386718-25.4375-73.472656-61.136719-3.132812-20.777344 2.949219-41.886719 16.660156-57.8125 13.714844-15.921875 33.6875-25.070313 54.699219-25.050781l1.097656.054687c3.949219.054688 7.347657-2.78125 8-6.679687 6.117188-36.628906 34.601563-65.457032 71.152344-72.015625 36.554687-6.5625 73.285156 10.5625 91.761719 42.777343 1.382812 2.398438 3.910156 3.914063 6.679687 4 24.105469.667969 46.875 11.242188 62.9375 29.230469s24.003907 41.804688 21.949219 65.832031c-4.5625 46.277344-43.769531 81.371094-90.265625 80.800782zm0 0"/><path d="m156.046875 278.921875c2.558594 0 4.964844-1.226563 6.46875-3.296875 1.507813-2.074219 1.929687-4.738281 1.136719-7.175781l-15.605469-48.144531 40.949219-29.742188c2.8125-2.042969 3.984375-5.664062 2.902344-8.964844-1.082032-3.300781-4.171876-5.527344-7.644532-5.507812h-50.609375l-15.640625-48.144532c-1.078125-3.28125-4.144531-5.5-7.597656-5.5-3.457031 0-6.523438 2.21875-7.601562 5.5l-15.664063 48.144532h-50.617187c-3.464844 0-6.535157 2.230468-7.609376 5.527344-1.070312 3.296874.101563 6.90625 2.90625 8.945312l40.945313 29.742188-15.640625 48.144531c-1.070312 3.296875.101562 6.910156 2.90625 8.945312 2.804688 2.039063 6.601562 2.039063 9.40625 0l40.953125-29.753906 40.941406 29.753906c1.371094.996094 3.019531 1.53125 4.714844 1.527344zm-40.953125-47.632813c-2.804688-2.039062-6.605469-2.039062-9.410156 0l-25.734375 18.695313 9.832031-30.246094c1.070312-3.296875-.101562-6.90625-2.902344-8.945312l-25.730468-18.703125h31.808593c3.464844 0 6.535157-2.230469 7.609375-5.527344l9.832032-30.25 9.824218 30.25c1.070313 3.296875 4.140625 5.527344 7.605469 5.527344h31.808594l-25.726563 18.6875c-2.804687 2.039062-3.976562 5.648437-2.90625 8.945312l9.839844 30.253906zm0 0"/><path d="m208.765625 164.304688-15.640625 48.144531c-1.070312 3.296875.101562 6.910156 2.90625 8.945312 2.804688 2.039063 6.601562 2.039063 9.40625 0l40.953125-29.753906 40.941406 29.753906c2.804688 2.039063 6.601563 2.039063 9.40625 0 2.804688-2.035156 3.976563-5.648437 2.90625-8.945312l-15.597656-48.144531 40.949219-29.742188c2.8125-2.042969 3.984375-5.664062 2.902344-8.964844-1.082032-3.300781-4.171876-5.527344-7.644532-5.507812h-50.609375l-15.640625-48.144532c-1.078125-3.28125-4.144531-5.5-7.597656-5.5-3.457031 0-6.523438 2.21875-7.601562 5.5l-15.664063 48.144532h-50.617187c-3.464844 0-6.535157 2.230468-7.609376 5.527344-1.070312 3.296874.101563 6.90625 2.90625 8.945312zm20.183594-28.214844c3.464843 0 6.535156-2.230469 7.609375-5.527344l9.824218-30.25 9.820313 30.25c1.074219 3.296875 4.144531 5.527344 7.609375 5.527344h31.808594l-25.726563 18.6875c-2.804687 2.039062-3.976562 5.648437-2.90625 8.945312l9.855469 30.253906-25.75-18.6875c-2.804688-2.039062-6.605469-2.039062-9.410156 0l-25.734375 18.695313 9.832031-30.246094c1.070312-3.296875-.101562-6.90625-2.902344-8.945312l-25.730468-18.703125zm0 0"/></svg>