<svg height="480pt" viewBox="0 0 480.01198 480" width="480pt" xmlns="http://www.w3.org/2000/svg"><path d="m383.800781 272.40625c-21.074219-33.734375-59.691406-52.308594-99.199219-47.710938.273438-3.085937-1.25-6.050781-3.921874-7.617187l-27.710938-16c-2.476562-1.453125-5.542969-1.464844-8.03125-.035156-2.488281 1.429687-4.023438 4.082031-4.015625 6.953125s1.550781 5.519531 4.046875 6.9375l22.625 13.074218c-17.664062 4.988282-33.679688 14.597657-46.402344 27.832032l-6.246094-10.816406c-2.226562-3.796876-7.09375-5.082032-10.902343-2.882813-3.808594 2.199219-5.128907 7.058594-2.953125 10.882813l9.308594 16.070312c-7.300782 10.621094-12.558594 22.507812-15.503907 35.054688-47.554687 2.726562-84.3125 42.796874-82.929687 90.410156 1.382812 47.617187 40.398437 85.488281 88.035156 85.449218h176c55.914062.035157 101.839844-44.167968 103.9375-100.042968 2.101562-55.875-40.378906-103.398438-96.136719-107.558594zm-10.328125 191.601562h-171.199218c-36.210938.503907-67.390626-25.441406-73.472657-61.136718-3.136719-20.777344 2.949219-41.890625 16.660157-57.8125 13.710937-15.921875 33.6875-25.070313 54.699218-25.050782l1.097656.054688c3.972657.121094 7.410157-2.75 8-6.679688 1.757813-10.480468 5.398438-20.558593 10.742188-29.746093 3.132812 1.796875 7.082031 1.273437 9.636719-1.28125 2.554687-2.554688 3.082031-6.503907 1.285156-9.636719l-1.386719-2.402344c18.648438-21.519531 46.566406-32.671875 74.910156-29.925781s53.601563 19.050781 67.769532 43.75c1.386718 2.402344 3.910156 3.914063 6.679687 4 24.101563.683594 46.855469 11.261719 62.910157 29.25 16.050781 17.988281 23.984374 41.792969 21.929687 65.816406-4.5625 46.273438-43.765625 81.367188-90.261719 80.800781zm0 0"/><path d="m152 48.007812c4.417969 0 8-3.582031 8-8v-32c0-4.421874-3.582031-7.9999995-8-7.9999995s-8 3.5781255-8 7.9999995v32c0 4.417969 3.582031 8 8 8zm0 0"/><path d="m89.070312 59.007812c2.226563 3.792969 7.09375 5.078126 10.902344 2.878907s5.128906-7.058594 2.957032-10.878907l-16-27.714843c-2.226563-3.792969-7.09375-5.078125-10.902344-2.882813-3.808594 2.199219-5.128906 7.0625-2.957032 10.882813zm0 0"/><path d="m23.296875 86.933594 27.710937 16c3.824219 2.175781 8.683594.855468 10.882813-2.953125 2.199219-3.808594.910156-8.679688-2.882813-10.902344l-27.710937-16c-3.824219-2.171875-8.683594-.855469-10.882813 2.953125-2.199218 3.808594-.910156 8.679688 2.882813 10.902344zm0 0"/><path d="m48 152.007812c0-4.421874-3.582031-8-8-8h-32c-4.417969 0-8 3.578126-8 8 0 4.417969 3.582031 8 8 8h32c4.417969 0 8-3.582031 8-8zm0 0"/><path d="m51 201.078125-27.710938 16c-3.792968 2.222656-5.082031 7.09375-2.882812 10.902344 2.199219 3.808593 7.058594 5.128906 10.882812 2.953125l27.710938-16c3.792969-2.222656 5.082031-7.09375 2.882812-10.902344-2.199218-3.808594-7.058593-5.125-10.882812-2.953125zm0 0"/><path d="m100 242.070312c-3.828125-2.210937-8.71875-.898437-10.929688 2.925782l-16 27.714844c-2.171874 3.820312-.851562 8.683593 2.957032 10.882812s8.675781.910156 10.902344-2.882812l16-27.714844c2.207031-3.824219.894531-8.71875-2.929688-10.925782zm0 0"/><path d="m144 264.007812v32c0 4.417969 3.582031 8 8 8s8-3.582031 8-8v-32c0-4.421874-3.582031-8-8-8s-8 3.578126-8 8zm0 0"/><path d="m256 152.007812c0 4.417969 3.582031 8 8 8h32c4.417969 0 8-3.582031 8-8 0-4.421874-3.582031-8-8-8h-32c-4.417969 0-8 3.578126-8 8zm0 0"/><path d="m249 104.007812c1.40625 0 2.785156-.371093 4-1.074218l27.710938-16c3.792968-2.222656 5.082031-7.09375 2.882812-10.902344s-7.058594-5.125-10.882812-2.953125l-27.710938 16c-3.136719 1.808594-4.664062 5.5-3.726562 9 .9375 3.496094 4.105468 5.925781 7.726562 5.929687zm0 0"/><path d="m204 61.941406c3.828125 2.210938 8.71875.898438 10.929688-2.925781l16-27.714844c2.171874-3.820312.851562-8.683593-2.957032-10.882812-3.808594-2.195313-8.675781-.910157-10.902344 2.882812l-16 27.714844c-2.207031 3.824219-.894531 8.71875 2.929688 10.925781zm0 0"/><path d="m248 152.007812c0-53.019531-42.980469-96-96-96s-96 42.980469-96 96c0 53.015626 42.980469 96 96 96 52.992188-.0625 95.9375-43.007812 96-96zm-96 80c-44.183594 0-80-35.820312-80-80 0-44.183593 35.816406-80 80-80s80 35.816407 80 80c-.046875 44.160157-35.835938 79.949219-80 80zm0 0"/><path d="m208 144.007812c-4.417969 0-8 3.578126-8 8 0 26.507813-21.492188 48-48 48s-48-21.492187-48-48c0-4.421874-3.582031-8-8-8s-8 3.578126-8 8c0 35.34375 28.652344 64 64 64s64-28.65625 64-64c0-4.421874-3.582031-8-8-8zm0 0"/><path d="m104 128.007812c4.417969 0 8-3.582031 8-8 0-4.421874 3.582031-8 8-8s8 3.578126 8 8c0 4.417969 3.582031 8 8 8s8-3.582031 8-8c0-13.257812-10.746094-24-24-24s-24 10.742188-24 24c0 4.417969 3.582031 8 8 8zm0 0"/><path d="m168 128.007812c4.417969 0 8-3.582031 8-8 0-4.421874 3.582031-8 8-8s8 3.578126 8 8c0 4.417969 3.582031 8 8 8s8-3.582031 8-8c0-13.257812-10.746094-24-24-24s-24 10.742188-24 24c0 4.417969 3.582031 8 8 8zm0 0"/></svg>