<svg height="488pt" viewBox="0 -4 488.03244 488" width="488pt" xmlns="http://www.w3.org/2000/svg"><path d="m480.03125 288.027344c-4.417969 0-8 3.582031-8 8 .074219 67.886718-49.871094 125.449218-117.085938 134.953125-67.214843 9.5-131.160156-31.964844-149.90625-97.207031-18.746093-65.242188 13.433594-134.328126 75.441407-161.957032 62.003906-27.625 134.890625-5.355468 170.863281 52.210938h-11.3125c-4.417969 0-8 3.582031-8 8 0 4.421875 3.582031 8 8 8h32c4.417969 0 8-3.578125 8-8v-32c0-4.417969-3.582031-8-8-8s-8 3.582031-8 8v14.136718c-21.929688-34.121093-56.535156-58.117187-96.183594-66.6875-2.074218-52.679687-43.457031-95.359374-96.046875-99.0625-22.347656-35.382812-63.746093-53.898437-105.019531-46.960937-41.269531 6.9375-74.34375 37.96875-83.894531 78.710937-24.683594 1.453126-47.617188 13.21875-63.199219 32.417969s-22.375 44.0625-18.71875 68.519531c7.289062 43.652344 45.324219 75.464844 89.574219 74.925782h99.007812c-15.59375 57.050781 3.339844 117.964844 48.523438 156.128906 45.183593 38.160156 108.40625 46.632812 162.042969 21.714844 53.636718-24.917969 87.9375-78.699219 87.914062-137.84375 0-4.417969-3.582031-8-8-8zm-389.488281-48c-36.300781.550781-67.585938-25.4375-73.710938-61.222656-4.164062-27.648438 7.964844-55.222657 31.160157-70.839844 11.800781-8 25.785156-12.167969 40.039062-11.9375h.050781c.214844 0 1.152344.066406 1.367188.066406 3.90625 0 7.242187-2.824219 7.886719-6.679688 6.09375-36.636718 34.570312-65.480468 71.128906-72.046874 36.554687-6.566407 73.289062 10.566406 91.75 42.789062 1.386718 2.402344 3.917968 3.917969 6.691406 4 44.765625 1.257812 81.359375 36.109375 84.796875 80.761719-5.203125-.570313-10.433594-.867188-15.671875-.890625-62.269531.097656-118.195312 38.125-141.175781 96zm0 0"/><path d="m320.03125 304.027344c4.417969 0 8-3.578125 8-8v-64c0-4.417969-3.582031-8-8-8h-64c-4.417969 0-8 3.582031-8 8 0 4.421875 3.582031 8 8 8h56v48h-56c-4.417969 0-8 3.582031-8 8v64c0 4.421875 3.582031 8 8 8h64c4.417969 0 8-3.578125 8-8 0-4.417969-3.582031-8-8-8h-56v-48zm0 0"/><path d="m416.03125 368.027344c4.417969 0 8-3.578125 8-8v-128c0-4.417969-3.582031-8-8-8s-8 3.582031-8 8v56h-48v-56c0-4.417969-3.582031-8-8-8s-8 3.582031-8 8v64c0 4.421875 3.582031 8 8 8h56v56c0 4.421875 3.582031 8 8 8zm0 0"/><path d="m88.03125 304.027344c-48.601562 0-88 39.402344-88 88 0 48.601562 39.398438 88 88 88s88-39.398438 88-88c-.050781-48.578125-39.417969-87.945313-88-88zm0 160c-39.761719 0-72-32.234375-72-72 0-39.761719 32.238281-72 72-72 39.765625 0 72 32.238281 72 72-.042969 39.75-32.253906 71.957031-72 72zm0 0"/><path d="m110.558594 384.027344c-2.417969-6.773438-7.75-12.105469-14.527344-14.527344v-33.472656c0-4.417969-3.582031-8-8-8s-8 3.582031-8 8v33.472656c-10.53125 3.703125-17.109375 14.191406-15.851562 25.28125 1.253906 11.09375 10.007812 19.847656 21.097656 21.101562 11.09375 1.253907 21.582031-5.320312 25.28125-15.855468h25.472656c4.417969 0 8-3.578125 8-8 0-4.417969-3.582031-8-8-8zm-22.527344 16c-4.417969 0-8-3.578125-8-8 0-4.417969 3.582031-8 8-8s8 3.582031 8 8c0 4.421875-3.582031 8-8 8zm0 0"/></svg>