<svg height="480pt" viewBox="0 0 480.03236 480" width="480pt" xmlns="http://www.w3.org/2000/svg"><path d="m384.03125.015625h96v16h-96zm0 0"/><path d="m336.03125.015625h32v16h-32zm0 0"/><path d="m384.03125 32.015625h96v16h-96zm0 0"/><path d="m336.03125 32.015625h32v16h-32zm0 0"/><path d="m48.03125 432.015625h96v16h-96zm0 0"/><path d="m.03125 432.015625h32v16h-32zm0 0"/><path d="m48.03125 464.015625h96v16h-96zm0 0"/><path d="m.03125 464.015625h32v16h-32zm0 0"/><path d="m459.921875 236.761719c-.273437-.515625-.574219-1.011719-.90625-1.488281-13.175781-22.394532-31.84375-41.0625-54.238281-54.242188-.480469-.328125-.976563-.628906-1.488282-.902344-11.128906-6.359375-23.023437-11.277344-35.394531-14.632812-1.050781-53.484375-42.726562-97.332032-96.085937-101.097656-22.347656-35.382813-63.746094-53.894532-105.019532-46.957032-41.269531 6.933594-74.34375 37.964844-83.894531 78.710938-24.683593 1.449218-47.621093 13.214844-63.207031 32.414062-15.582031 19.199219-22.375 44.066406-18.71875 68.523438 7.292969 43.648437 45.324219 75.460937 89.574219 74.925781h91.007812c-10.839843 38.816406-5.578125 80.367187 14.59375 115.257813.347657.6875.75 1.347656 1.199219 1.976562 13.160156 22.179688 31.71875 40.667969 53.945312 53.75.566407.402344 1.160157.761719 1.773438 1.082031 46.441406 26.582031 103.488281 26.582031 149.929688 0 .617187-.320312 1.210937-.679687 1.777343-1.082031 22.226563-13.082031 40.78125-31.570312 53.941407-53.75.453124-.628906.855468-1.289062 1.203124-1.976562 26.8125-46.585938 26.8125-103.921876 0-150.503907zm-369.378906 19.253906c-36.300781.554687-67.589844-25.429687-73.710938-61.214844-4.171875-27.652343 7.953125-55.234375 31.152344-70.847656 11.804687-8.003906 25.789063-12.171875 40.046875-11.9375h.050781c.214844 0 1.148438.066406 1.367188.066406 3.90625-.003906 7.242187-2.828125 7.886719-6.683593 6.101562-36.625 34.574218-65.457032 71.121093-72.023438s73.273438 10.554688 91.742188 42.769531c1.386719 2.402344 3.917969 3.914063 6.6875 4 45.207031 1.269531 81.996093 36.777344 84.867187 81.910157-34.089844-5.722657-69.109375.667968-98.976562 18.074218-.515625.273438-1.011719.574219-1.488282.902344-22.394531 13.179688-41.0625 31.847656-54.242187 54.242188-.328125.476562-.628906.972656-.902344 1.488281-3.546875 6.191406-6.652343 12.625-9.289062 19.253906zm312.25 169.488281-11.832031-20.488281c-2.226563-3.792969-7.09375-5.082031-10.902344-2.882813-3.808594 2.199219-5.128906 7.058594-2.953125 10.882813l11.808593 20.449219c-16.476562 8.28125-34.472656 13.09375-52.882812 14.144531v-23.59375c0-4.417969-3.582031-8-8-8s-8 3.582031-8 8v23.59375c-18.40625-1.054687-36.398438-5.871094-52.871094-14.152344l11.808594-20.449219c1.453125-2.476562 1.464844-5.539062.035156-8.03125-1.429687-2.488281-4.082031-4.019531-6.953125-4.015624-2.871093.007812-5.519531 1.550781-6.9375 4.046874l-11.832031 20.488282c-15.386719-10.171875-28.558594-23.34375-38.730469-38.726563l20.488281-11.832031c3.796876-2.226562 5.082032-7.09375 2.882813-10.902344s-7.058594-5.128906-10.882813-2.953125l-20.445312 11.804688c-8.285156-16.46875-13.101562-34.464844-14.152344-52.871094h23.589844c4.417969 0 8-3.582031 8-8s-3.582031-8-8-8h-23.589844c1.050782-18.40625 5.867188-36.398437 14.152344-52.871094l20.445312 11.808594c3.824219 2.171875 8.683594.851563 10.882813-2.957031s.914063-8.675782-2.882813-10.898438l-20.488281-11.832031c10.171875-15.386719 23.34375-28.558594 38.730469-38.730469l11.832031 20.488282c2.222657 3.792968 7.09375 5.082031 10.902344 2.882812s5.125-7.058594 2.953125-10.882812l-11.808594-20.445313c16.472656-8.285156 34.464844-13.101563 52.871094-14.152344v23.589844c0 4.417969 3.582031 8 8 8s8-3.582031 8-8v-23.589844c18.40625 1.050781 36.402344 5.867188 52.875 14.152344l-11.808594 20.445313c-2.175781 3.824218-.855468 8.683593 2.953125 10.882812 3.808594 2.199219 8.675781.910156 10.902344-2.882812l11.832031-20.488282c15.382813 10.171875 28.558594 23.34375 38.726563 38.730469l-20.488281 11.832031c-3.792969 2.222656-5.082032 7.089844-2.882813 10.898438s7.0625 5.128906 10.882813 2.957031l20.449218-11.808594c8.28125 16.472657 13.097656 34.464844 14.152344 52.871094h-23.59375c-4.417969 0-8 3.582031-8 8s3.582031 8 8 8h23.59375c-1.054688 18.40625-5.871094 36.402344-14.152344 52.871094l-20.449218-11.804688c-2.476563-1.453125-5.539063-1.46875-8.03125-.039062-2.488282 1.429687-4.019532 4.085937-4.015626 6.957031.007813 2.871094 1.550782 5.515625 4.046876 6.9375l20.488281 11.832031c-10.167969 15.386719-23.335938 28.5625-38.71875 38.734375zm0 0"/><path d="m392.03125 304.015625h-56v-72c0-4.417969-3.582031-8-8-8s-8 3.582031-8 8v80c0 4.417969 3.582031 8 8 8h64c4.417969 0 8-3.582031 8-8s-3.582031-8-8-8zm0 0"/></svg>