<svg height="480pt" viewBox="0 0 480 479" width="480pt" xmlns="http://www.w3.org/2000/svg"><path d="m480 351.121094h-58.863281c-3.644531-15.617188-10.878907-30.167969-21.136719-42.496094v-128.796875l8.976562 8.964844 11.3125-11.3125-22.632812-22.621094c-3.125-3.125-8.1875-3.125-11.3125 0l-22.632812 22.621094 11.3125 11.3125 8.976562-8.984375v113.304687c-16.183594-12.601562-35.742188-20.121093-56.199219-21.597656-2.371093-3.730469-4.976562-7.308594-7.800781-10.707031v-161l8.976562 8.96875 11.3125-11.3125-22.632812-22.621094c-3.125-3.125-8.1875-3.125-11.3125 0l-22.632812 22.621094 11.3125 11.3125 8.976562-8.96875v145.714844c-16.105469-12.640626-35.589844-20.242188-56-21.847657v-195.867187l8.976562 8.96875 11.3125-11.3125-22.632812-22.621094c-3.125-3.125-8.1875-3.125-11.3125 0l-22.632812 22.621094 11.3125 11.3125 8.976562-8.96875v195.65625c-20.390625 1.511718-39.878906 9.027344-56 21.601562v-145.257812l8.976562 8.96875 11.3125-11.3125-22.632812-22.621094c-3.125-3.125-8.1875-3.125-11.3125 0l-22.632812 22.621094 11.3125 11.3125 8.976562-8.96875v160.914062c-10.25 12.347656-17.488281 26.910156-21.144531 42.535156-15.289063.914063-30.070313 5.832032-42.855469 14.265626v-137.714844l8.976562 8.96875 11.3125-11.3125-22.632812-22.621094c-3.125-3.125-8.1875-3.125-11.3125 0l-22.632812 22.621094 11.3125 11.3125 8.976562-8.96875v150.984375c-5.714844 6.066406-10.542969 12.910156-14.34375 20.328125h-65.65625v16h59.382812c-7.578124 26.535156-2.253906 55.085937 14.378907 77.101562 16.632812 22.015625 42.644531 34.941406 70.238281 34.898438h176c57.410156-.066406 103.933594-46.589844 104-104 0-2.703125-.183594-5.351563-.382812-8h56.382812zm-75.34375 0h-4.65625v-12.648438c1.875 4.089844 3.433594 8.320313 4.65625 12.648438zm-81.769531-63.847656c23.1875.683593 45.164062 10.523437 61.113281 27.367187v36.480469h-64v-64.558594c.910156.417969 1.890625.660156 2.886719.710938zm-18.886719-20.207032v84.054688h-16.71875c-3.429688-20.101563-19.175781-35.851563-39.28125-39.277344v-72.183594c21.382812 2.003906 41.296875 11.75 56 27.40625zm-64 60.054688c17.671875 0 32 14.328125 32 32 0 17.675781-14.328125 32-32 32s-32-14.324219-32-32c0-17.671875 14.328125-32 32-32zm-8-87.640625v72.363281c-20.105469 3.425781-35.851562 19.175781-39.28125 39.277344h-16.71875v-84.351563c14.6875-15.660156 34.617188-25.371093 56-27.289062zm-87.832031 79.640625c.121093 0 .976562.058594 1.128906.058594 3.992187.179687 7.464844-2.71875 8-6.679688 1.277344-7.558594 3.53125-14.921875 6.703125-21.898438v60.519532h-64v-13.480469c13.210938-11.917969 30.375-18.519531 48.167969-18.519531zm263.832031 56c-.054688 48.582031-39.421875 87.949218-88 88h-176c-23.394531.070312-45.359375-11.265625-58.855469-30.375-13.496093-19.109375-16.832031-43.597656-8.945312-65.625h116.519531c3.863281 23.105468 23.855469 40.035156 47.28125 40.035156s43.417969-16.929688 47.28125-40.035156h120.328125c.230469 2.640625.390625 5.296875.390625 8zm0 0"/></svg>