<svg height="480pt" viewBox="0 0 480 480" width="480pt" xmlns="http://www.w3.org/2000/svg"><path d="m383.800781 272.390625c-22.355469-35.378906-63.757812-53.882813-105.03125-46.945313-41.269531 6.9375-74.347656 37.964844-83.90625 78.707032-47.503906 2.796875-84.179687 42.847656-82.792969 90.417968 1.390626 47.566407 40.34375 85.410157 87.929688 85.429688h176c55.878906-.019531 101.742188-44.210938 103.839844-100.050781 2.097656-55.835938-40.320313-103.34375-96.039063-107.558594zm-7.800781 191.609375h-176c-39.765625-.046875-71.960938-32.320312-71.914062-72.085938.042968-39.761718 32.316406-71.960937 72.082031-71.914062.128906 0 .976562.054688 1.128906.054688 3.960937.09375 7.382813-2.761719 8-6.679688 6.113281-36.636719 34.601563-65.472656 71.160156-72.027344 36.5625-6.554687 73.296875 10.582032 91.757813 42.8125 1.382812 2.394532 3.902344 3.90625 6.664062 4 47.808594 1.808594 85.398438 41.496094 84.617188 89.328125-.785156 47.835938-39.65625 86.269531-87.496094 86.511719zm0 0"/><path d="m472 0h-96c-3.234375 0-6.152344 1.949219-7.390625 4.9375s-.550781 6.429688 1.734375 8.71875l31.542969 31.542969c-49.851563 45.484375-104.730469 85.140625-163.566407 118.191406-58.085937 34.636719-120.011718 62.378906-184.519531 82.671875-15.28125 4.558594-30.902343 7.882812-46.710937 9.9375-.363282.089844-.71875.203125-1.066406.34375-.523438.113281-1.035157.277344-1.527344.496094-.445313.242187-.867188.523437-1.257813.847656-.414062.289062-.800781.621094-1.148437.984375-.328125.390625-.613282.816406-.859375 1.265625-.273438.417969-.507813.867188-.695313 1.335938-.160156.519531-.269531 1.054687-.320312 1.597656-.09375.34375-.167969.695312-.214844 1.050781v33.039063c0 4.417968 3.582031 8 8 8 16.855469-.441407 33.597656-2.859376 49.886719-7.199219 56.257812-13.640625 130.777343-45.914063 204.433593-88.523438 71.542969-41.238281 134.679688-87.78125 174.886719-128.71875l29.136719 29.136719c2.289062 2.285156 5.730469 2.972656 8.71875 1.734375s4.9375-4.15625 4.9375-7.390625v-96c0-4.417969-3.582031-8-8-8zm-8 84.6875-21.222656-21.222656-.105469-.066406-.070313-.101563c-.402343-.308594-.835937-.578125-1.289062-.800781-.410156-.3125-.851562-.585938-1.3125-.816406-.519531-.160157-1.058594-.265626-1.601562-.3125-.960938-.328126-2.007813-.300782-2.949219.074218-.492188.0625-.976563.171875-1.449219.328125-.457031.242188-.886719.527344-1.289062.855469-.441407.222656-.863282.492188-1.253907.800781l-.074219.109375-.09375.074219c-38.753906 41.246094-103.289062 89.269531-176.976562 131.789063-72.402344 41.882812-145.367188 73.53125-200.222656 86.832031-12.492188 3.21875-25.234375 5.363281-38.089844 6.402343v-17.761718c14.257812-2.21875 28.359375-5.363282 42.207031-9.414063 65.769531-20.660156 128.902344-48.921875 188.121094-84.210937 70.519531-40.75 131.824219-85.597656 172.609375-126.300782.757812-.757812 1.355469-1.664062 1.757812-2.65625.082032-.308593.140626-.621093.183594-.9375.226563-.667968.359375-1.367187.402344-2.070312 0-.273438-.128906-.519531-.152344-.800781-.039062-.757813-.183594-1.507813-.433594-2.222657-.085937-.226562-.296874-.394531-.398437-.609374-.339844-.742188-.792969-1.429688-1.34375-2.03125l-23.640625-23.617188h68.6875zm0 0"/><path d="m0 0h16v16h-16zm0 0"/><path d="m24 0h88v16h-88zm0 0"/><path d="m0 32h16v16h-16zm0 0"/><path d="m24 32h88v16h-88zm0 0"/><path d="m0 64h16v16h-16zm0 0"/><path d="m24 64h88v16h-88zm0 0"/><path d="m0 96h16v16h-16zm0 0"/><path d="m24 96h88v16h-88zm0 0"/></svg>