<svg height="480pt" viewBox="0 0 480 480" width="480pt" xmlns="http://www.w3.org/2000/svg"><path d="m327.800781 272.390625c-22.355469-35.378906-63.757812-53.882813-105.03125-46.945313-41.269531 6.9375-74.347656 37.964844-83.90625 78.707032-47.503906 2.796875-84.179687 42.847656-82.792969 90.417968 1.390626 47.566407 40.34375 85.410157 87.929688 85.429688h176c55.878906-.019531 101.742188-44.210938 103.839844-100.050781 2.097656-55.835938-40.320313-103.34375-96.039063-107.558594zm79.933594 110.808594c-4.597656 46.277343-43.808594 81.359375-90.308594 80.800781h-171.128906c-36.214844.5-67.402344-25.445312-73.496094-61.144531-3.132812-20.777344 2.953125-41.886719 16.664063-57.804688 13.710937-15.921875 33.683594-25.070312 54.695312-25.050781l1.230469.054688c3.910156 0 7.246094-2.824219 7.890625-6.679688 6.117188-36.628906 34.601562-65.457031 71.152344-72.015625 36.550781-6.5625 73.285156 10.5625 91.757812 42.777344 1.375 2.402343 3.898438 3.917969 6.664063 4 24.105469.671875 46.867187 11.25 62.929687 29.238281 16.058594 17.988281 24 41.796875 21.949219 65.824219zm0 0"/><path d="m202.34375 53.65625c.082031.078125.191406.105469.273438.175781 4.757812 12.960938 15.867187 22.550781 29.382812 25.367188v8.800781h-16c-4.417969 0-8 3.582031-8 8s3.582031 8 8 8h48c4.417969 0 8-3.582031 8-8s-3.582031-8-8-8h-16v-8.800781c13.511719-2.8125 24.621094-12.398438 29.382812-25.351563.082032-.070312.191407-.105468.273438-.175781l32-32c2.296875-2.285156 2.988281-5.734375 1.75-8.730469s-4.164062-4.945312-7.40625-4.941406h-24c0-4.417969-3.582031-8-8-8h-64c-4.417969 0-8 3.582031-8 8h-24c-3.234375 0-6.152344 1.949219-7.390625 4.9375s-.550781 6.429688 1.734375 8.71875zm82.34375-29.65625-4.6875 4.6875v-4.6875zm-20.6875-8v24c0 13.253906-10.746094 24-24 24s-24-10.746094-24-24v-24zm-64 8v4.6875l-4.6875-4.6875zm0 0"/><path d="m194.855469 182.167969 23.488281 23.488281c2.289062 2.285156 5.730469 2.972656 8.71875 1.734375s4.9375-4.15625 4.9375-7.390625v-80c0-4.417969-3.582031-8-8-8h-80c-3.234375 0-6.152344 1.949219-7.390625 4.9375s-.550781 6.429688 1.734375 8.71875l25.601562 25.601562c-20.082031 24.125-44.503906 44.277344-72 59.414063-26.214843 15.796875-55.039062 26.789063-85.113281 32.457031-.320312.09375-.636719.207032-.945312.34375-.519531.128906-1.027344.308594-1.511719.542969-.4375.226563-.851562.496094-1.238281.800781-.828125.59375-1.503907 1.375-1.96875 2.28125-.261719.429688-.476563.886719-.648438 1.359375-.164062.519531-.269531 1.054688-.320312 1.597657-.085938.324218-.1562502.652343-.199219.984374v25.28125c0 4.417969 3.582031 8 8 8 28.800781 0 69.152344-13.382812 108-35.800781 30.433594-16.660156 57.238281-39.214843 78.855469-66.351562zm-178.855469 85.703125v-10.160156c29.613281-6.429688 57.984375-17.636719 84-33.183594 35.769531-20.679688 65.335938-46.046875 81.128906-69.597656.117188-.261719.222656-.527344.3125-.800782 1.5-2.796875 1.15625-6.226562-.867187-8.671875-.136719-.234375-.285157-.457031-.445313-.671875l-16.800781-16.800781h52.671875v52.6875l-16.742188-16.742187c-.257812-.203126-.523437-.386719-.800781-.554688-.25-.246094-.519531-.476562-.800781-.6875-.175781-.101562-.375-.101562-.558594-.191406-.488281-.226563-1-.398438-1.523437-.519532-1.945313-.601562-4.054688-.335937-5.789063.726563-.488281.253906-.945312.554687-1.371094.90625-.148437.125-.335937.175781-.476562.320313-.335938.589843-.753906 1.128906-1.242188 1.597656-13.160156 22.402344-42.574218 48.214844-78.703124 69.128906-28.0625 17.265625-59.375 28.570312-91.992188 33.214844zm0 0"/><path d="m479.800781 250.054688c-.292969-3.1875-2.578125-5.835938-5.6875-6.589844-.308593-.136719-.625-.25-.945312-.34375-30.09375-5.660156-58.9375-16.648438-85.167969-32.449219-27.480469-15.140625-51.886719-35.289063-71.953125-59.40625l25.601563-25.601563c2.292968-2.285156 2.980468-5.726562 1.742187-8.71875-1.234375-2.992187-4.152344-4.945312-7.390625-4.945312h-80c-4.417969 0-8 3.582031-8 8v80c0 3.234375 1.949219 6.152344 4.9375 7.390625s6.429688.550781 8.71875-1.734375l23.488281-23.488281c21.613281 27.152343 48.421875 49.726562 78.855469 66.398437 38.847656 22.402344 79.199219 35.792969 108 35.792969 4.417969 0 8-3.582031 8-8v-25.320313c-.042969-.332031-.113281-.660156-.199219-.984374zm-186.503906-84.511719c-.488281-.46875-.90625-1.007813-1.242187-1.597657-.144532-.144531-.328126-.191406-.480469-.320312-.421875-.355469-.882813-.660156-1.375-.914062-1.730469-1.058594-3.835938-1.324219-5.773438-.726563-.527343.121094-1.035156.296875-1.523437.527344-.183594.089843-.382813.089843-.558594.191406-.46875.488281-1.007812.90625-1.601562 1.242187l-16.742188 16.742188v-52.6875h52.6875l-16.800781 16.800781c-.160157.214844-.308594.4375-.445313.671875-2.023437 2.445313-2.363281 5.871094-.867187 8.671875.089843.273438.195312.539063.3125.800781 15.792969 23.550782 45.359375 48.917969 81.121093 69.597657 26.011719 15.542969 54.378907 26.742187 83.992188 33.167969v10.152343c-32.617188-4.636719-63.933594-15.933593-92-33.191406-36.128906-20.902344-65.542969-46.75-78.703125-69.128906zm0 0"/></svg>