<svg height="480pt" viewBox="-1 0 480 480.00002" width="480pt" xmlns="http://www.w3.org/2000/svg"><path d="m365.253906 0h112v16h-112zm0 0"/><path d="m333.253906 0h16v16h-16zm0 0"/><path d="m365.253906 32h112v16h-112zm0 0"/><path d="m333.253906 32h16v16h-16zm0 0"/><path d="m365.253906 64h112v16h-112zm0 0"/><path d="m333.253906 64h16v16h-16zm0 0"/><path d="m381.054688 272.398438c-27.035157-42.84375-81.050782-59.917969-127.800782-40.398438v-24h8c4.417969 0 8-3.582031 8-8v-136h21.257813c3.234375 0 6.148437-1.949219 7.386719-4.9375 1.238281-2.988281.554687-6.429688-1.730469-8.71875l-45.257813-45.253906c-3.125-3.125-8.1875-3.125-11.3125 0l-45.253906 45.253906c-2.289062 2.289062-2.972656 5.730469-1.734375 8.71875s4.152344 4.9375 7.390625 4.9375h21.253906v136c0 4.417969 3.582032 8 8 8h8v32.359375c-12.730468 8.113281-23.53125 18.910156-31.648437 31.640625h-48.351563v-64h8c4.417969 0 8-3.582031 8-8v-104h21.257813c3.234375 0 6.148437-1.949219 7.386719-4.9375 1.238281-2.988281.554687-6.429688-1.730469-8.71875l-45.257813-45.253906c-3.125-3.125-8.1875-3.125-11.3125 0l-45.253906 45.253906c-2.289062 2.289062-2.972656 5.730469-1.734375 8.71875s4.152344 4.9375 7.390625 4.9375h21.253906v104c0 4.417969 3.582032 8 8 8h8v72c0 4.417969 3.582032 8 8 8h48.074219c-2.171875 5.234375-3.914063 10.636719-5.210937 16.152344-43.433594 2.601562-78.46875 36.519531-82.472657 79.847656h-48.390625v-176h8c4.417969 0 8-3.582031 8-8v-72h21.257813c3.234375 0 6.148437-1.949219 7.386719-4.9375 1.238281-2.988281.554687-6.429688-1.730469-8.71875l-45.257813-45.253906c-3.125-3.125-8.1875-3.125-11.3125 0l-45.253906 45.253906c-2.2890625 2.289062-2.972656 5.730469-1.734375 8.71875s4.152344 4.9375 7.390625 4.9375h21.253906v72c0 4.417969 3.582032 8 8 8h8v184c0 4.417969 3.582032 8 8 8h56.410156c4.171876 45.277344 42.121094 79.9375 87.589844 80h176c55.914063.035156 101.839844-44.167969 103.9375-100.042969 2.101563-55.875-40.378906-103.398437-96.136718-107.558593zm-151.800782-224.398438h-9.945312l25.945312-25.945312 25.945313 25.945312h-9.945313c-4.417968 0-8 3.582031-8 8v136h-16v-136c0-4.417969-3.582031-8-8-8zm-96 32h-9.945312l25.945312-25.945312 25.945313 25.945312h-9.945313c-4.417968 0-8 3.582031-8 8v104h-16v-104c0-4.417969-3.582031-8-8-8zm-96 32h-9.945312l25.945312-25.945312 25.945313 25.945312h-9.945313c-4.417968 0-8 3.582031-8 8v72h-16v-72c0-4.417969-3.582031-8-8-8zm423.738282 271.199219c-4.597657 46.28125-43.8125 81.363281-90.3125 80.800781h-171.128907c-36.214843.5-67.398437-25.445312-73.496093-61.144531-3.132813-20.777344 2.953124-41.886719 16.664062-57.804688 13.710938-15.921875 33.683594-25.070312 54.695312-25.050781l1.230469.054688c3.910157 0 7.246094-2.824219 7.890625-6.679688 6.117188-36.628906 34.601563-65.457031 71.152344-72.015625 36.554688-6.5625 73.285156 10.5625 91.757812 42.777344 1.386719 2.398437 3.910157 3.914062 6.679688 4 24.105469.671875 46.867188 11.25 62.925781 29.238281 16.058594 17.988281 23.992188 41.800781 21.941407 65.824219zm0 0"/></svg>