<svg height="480pt" viewBox="0 0 480.03418 480" width="480pt" xmlns="http://www.w3.org/2000/svg"><path d="m359.234375 256.757812c5.65625-7.003906 8.761719-15.722656 8.796875-24.726562 0-22.09375-17.90625-40-40-40-22.089844 0-40 17.90625-40 40 .039062 9.003906 3.140625 17.722656 8.800781 24.726562-18.972656 3.472657-32.761719 19.984376-32.800781 39.273438v96h16v-96c0-13.257812 10.746094-24 24-24h48c13.257812 0 24 10.742188 24 24v96h16v-96c-.035156-19.289062-13.828125-35.800781-32.796875-39.273438zm-31.203125-48.726562c13.257812 0 24 10.742188 24 24 0 13.253906-10.742188 24-24 24-13.253906 0-24-10.746094-24-24 0-13.257812 10.746094-24 24-24zm0 0"/><path d="m367.894531 149.511719c-1.050781-53.488281-42.730469-97.335938-96.09375-101.097657-22.347656-35.382812-63.746093-53.898437-105.019531-46.960937-41.269531 6.9375-74.34375 37.96875-83.894531 78.714844-24.683594 1.453125-47.617188 13.214843-63.199219 32.414062s-22.375 44.066407-18.71875 68.519531c7.289062 43.65625 45.328125 75.46875 89.582031 74.929688h91c-22.164062 80.972656 25.550781 164.578125 106.539063 186.683594 80.992187 22.105468 164.5625-25.664063 186.609375-106.671875 22.050781-81.007813-25.78125-164.542969-106.804688-186.53125zm-277.351562 90.519531c-36.300781.546875-67.585938-25.441406-73.710938-61.226562-4.164062-27.648438 7.964844-55.222657 31.160157-70.839844 11.800781-8 25.785156-12.167969 40.039062-11.933594h.050781c.214844 0 1.152344.0625 1.367188.0625 3.90625 0 7.242187-2.824219 7.886719-6.679688 6.09375-36.636718 34.570312-65.480468 71.128906-72.046874 36.554687-6.566407 73.289062 10.566406 91.75 42.789062 1.386718 2.402344 3.917968 3.917969 6.691406 4 45.199219 1.28125 81.976562 36.789062 84.847656 81.914062-70.289062-11.710937-139.140625 27.523438-164.898437 93.960938zm237.488281 192c-75.109375 0-136-60.890625-136-136 0-75.113281 60.890625-136 136-136 75.113281 0 136 60.886719 136 136-.082031 75.074219-60.921875 135.914062-136 136zm0 0"/><path d="m139.402344 384.367188c3-4.921876 4.601562-10.570313 4.628906-16.335938 0-17.675781-14.324219-32-32-32-17.671875 0-32 14.324219-32 32 .027344 5.765625 1.628906 11.414062 4.632812 16.335938-1.621093.222656-3.21875.613281-4.757812 1.167968-1.484375-.511718-3.015625-.867187-4.570312-1.074218 3.042968-4.941407 4.667968-10.625 4.695312-16.429688 0-17.675781-14.324219-32-32-32-17.671875 0-32 14.324219-32 32 .027344 5.765625 1.628906 11.414062 4.632812 16.335938-11.796874 1.671874-20.5820308 11.746093-20.632812 23.664062v64c0 4.417969 3.582031 8 8 8s8-3.582031 8-8v-64c0-4.417969 3.582031-8 8-8h41.472656c-.945312 2.5625-1.445312 5.265625-1.472656 8v64c0 4.417969 3.582031 8 8 8s8-3.582031 8-8v-64c0-4.417969 3.582031-8 8-8h48c4.417969 0 8 3.582031 8 8v64c0 4.417969 3.582031 8 8 8s8-3.582031 8-8v-64c-.046875-11.917969-8.832031-21.992188-20.628906-23.664062zm-27.371094-32.335938c8.835938 0 16 7.164062 16 16s-7.164062 16-16 16-16-7.164062-16-16 7.164062-16 16-16zm-64 0c8.835938 0 16 7.164062 16 16s-7.164062 16-16 16-16-7.164062-16-16 7.164062-16 16-16zm0 0"/></svg>