<svg height="479pt" viewBox="-47 0 479 479.99333" width="479pt" xmlns="http://www.w3.org/2000/svg"><path d="m96.496094 255.992188h176c55.878906-.019532 101.742187-44.210938 103.839844-100.046876 2.097656-55.839843-40.320313-103.347656-96.039063-107.558593-22.355469-35.378907-63.757813-53.886719-105.03125-46.949219-41.269531 6.9375-74.34375 37.964844-83.90625 78.707031-47.503906 2.796875-84.179687 42.851563-82.792969 90.417969 1.390625 47.566406 40.34375 85.414062 87.929688 85.429688zm.160156-160 1.230469.058593c3.910156-.003906 7.246093-2.828125 7.890625-6.679687 6.101562-36.652344 34.589844-65.503906 71.160156-72.070313 36.570312-6.5625 73.316406 10.582031 91.78125 42.820313 1.375 2.402344 3.898438 3.917968 6.664062 4 24.101563.683594 46.859376 11.265625 62.914063 29.253906s23.988281 41.796875 21.9375 65.816406c-4.597656 46.277344-43.8125 81.363282-90.3125 80.800782h-171.128906c-36.214844.503906-67.398438-25.441407-73.496094-61.144532-3.132813-20.773437 2.953125-41.882812 16.664063-57.804687 13.710937-15.921875 33.683593-25.066407 54.695312-25.050781zm0 0"/><path d="m336.496094 287.992188c-26.496094.03125-47.96875 21.503906-48 48h16c0-17.671876 14.328125-32 32-32s32 14.328124 32 32c0 17.675781-14.328125 32-32 32h-336v16h336c26.511718 0 48-21.488282 48-48 0-26.507813-21.488282-48-48-48zm0 0"/><path d="m240.496094 335.992188h-96v16h96c17.671875 0 32-14.324219 32-32 0-17.671876-14.328125-32-32-32s-32 14.328124-32 32h16c0-8.835938 7.164062-16 16-16 8.835937 0 16 7.164062 16 16 0 8.835937-7.164063 16-16 16zm0 0"/><path d="m272.496094 399.992188h-208v16h208c13.253906 0 24 10.746093 24 24 0 13.257812-10.746094 24-24 24s-24-10.742188-24-24h-16c0 22.09375 17.910156 40 40 40 22.09375 0 40-17.90625 40-40 0-22.089844-17.90625-40-40-40zm0 0"/><path d="m.496094 399.992188h16v16h-16zm0 0"/><path d="m32.496094 399.992188h16v16h-16zm0 0"/><path d="m112.496094 335.992188h16v16h-16zm0 0"/><path d="m80.496094 335.992188h16v16h-16zm0 0"/></svg>