<svg height="480pt" viewBox="0 0 480 480.08477" width="480pt" xmlns="http://www.w3.org/2000/svg"><path d="m144.035156 255.992188c4.417969 0 8-3.582032 8-8 0-4.417969-3.582031-8-8-8-39.765625-.046876-71.964844-32.316407-71.917968-72.082032.046874-39.765625 32.320312-71.964844 72.085937-71.917968.375 0 .753906.019531 1.128906.058593 3.929688 0 7.296875-2.8125 8-6.679687 6.113281-36.636719 34.601563-65.472656 71.160157-72.03125 36.5625-6.554688 73.292968 10.585937 91.757812 42.8125 1.382812 2.394531 3.902344 3.910156 6.664062 4 43.746094 1.421875 79.789063 34.792968 84.574219 78.296875 4.785157 43.507812-23.144531 83.910156-65.535156 94.808593-4.28125 1.105469-6.855469 5.46875-5.75 9.75s5.46875 6.859376 9.75 5.753907c49.324219-12.648438 82.230469-59.160157 77.730469-109.882813-4.496094-50.722656-45.070313-90.71875-95.847656-94.492187-22.355469-35.378907-63.761719-53.886719-105.03125-46.949219-41.269532 6.9375-74.347657 37.964844-83.90625 78.707031-47.503907 2.796875-84.183594 42.851563-82.792969 90.417969s40.339843 85.414062 87.929687 85.429688zm0 0"/><path d="m168.035156 263.992188h32c4.417969 0 8-3.582032 8-8v-88h21.253906c3.234376 0 6.152344-1.949219 7.390626-4.9375 1.238281-2.988282.554687-6.429688-1.734376-8.71875l-45.253906-45.253907c-3.175781-3-8.140625-3-11.3125 0l-45.257812 45.253907c-2.285156 2.289062-2.96875 5.730468-1.730469 8.71875 1.234375 2.988281 4.152344 4.9375 7.386719 4.9375h21.257812v88c0 4.417968 3.582032 8 8 8zm-9.945312-112 25.945312-25.941407 25.941406 25.941407h-9.941406c-4.417968 0-8 3.582031-8 8v88h-16v-88c0-4.417969-3.582031-8-8-8zm0 0"/><path d="m312.035156 103.992188h-32c-4.417968 0-8 3.582031-8 8v88h-21.257812c-3.234375 0-6.152344 1.949218-7.386719 4.941406-1.238281 2.988281-.554687 6.429687 1.730469 8.714844l45.257812 45.257812c3.125 3.121094 8.1875 3.121094 11.3125 0l45.253906-45.257812c2.289063-2.285157 2.972657-5.726563 1.734376-8.714844-1.238282-2.992188-4.15625-4.941406-7.390626-4.941406h-21.253906v-88c0-4.417969-3.582031-8-8-8zm9.941406 112-25.941406 25.945312-25.945312-25.945312h9.945312c4.417969 0 8-3.582032 8-8v-88h16v88c0 4.417968 3.582032 8 8 8zm0 0"/><path d="m440.035156 399.992188c-19.003906.023437-35.375 13.386718-39.199218 32h-16.800782v-96h16.800782c4.105468 20.121093 22.78125 33.863281 43.210937 31.796874 20.429687-2.0625 35.980469-19.261718 35.980469-39.796874 0-20.535157-15.550782-37.730469-35.980469-39.796876-20.429687-2.0625-39.105469 11.679688-43.210937 31.796876h-24.800782c-4.417968 0-8 3.582031-8 8v48h-32.410156c-4.074219-49.773438-45.660156-88.089844-95.597656-88.089844-49.941406 0-91.523438 38.316406-95.601563 88.089844h-32.390625v-48c0-4.417969-3.582031-8-8-8h-24.800781c-4.105469-20.117188-22.78125-33.859376-43.210937-31.796876-20.433594 2.066407-35.9804692 19.261719-35.9804692 39.796876 0 20.535156 15.5468752 37.734374 35.9804692 39.796874 20.429687 2.066407 39.105468-11.675781 43.210937-31.796874h16.800781v96h-16.800781c-4.105469-20.117188-22.78125-33.859376-43.210937-31.796876-20.433594 2.066407-35.9804692 19.261719-35.9804692 39.796876 0 20.535156 15.5468752 37.734374 35.9804692 39.796874 20.429687 2.066407 39.105468-11.675781 43.210937-31.796874h24.800781c4.417969 0 8-3.582032 8-8v-48h32.40625c4.078125 49.773437 45.660156 88.09375 95.601563 88.09375 49.9375 0 91.523437-38.320313 95.597656-88.09375h32.394531v48c0 4.417968 3.582032 8 8 8h24.800782c4.207031 20.625 23.679687 34.457031 44.539062 31.640624 20.863281-2.816406 35.96875-21.316406 34.5625-42.316406-1.410156-21.003906-18.855469-37.320312-39.902344-37.324218zm0-96c13.253906 0 24 10.746093 24 24 0 13.257812-10.746094 24-24 24s-24-10.742188-24-24c0-13.253907 10.746094-24 24-24zm-400 48c-13.253906 0-24-10.742188-24-24 0-13.253907 10.746094-24 24-24s24 10.746093 24 24c0 13.257812-10.746094 24-24 24zm0 112c-13.253906 0-24-10.742188-24-24 0-13.253907 10.746094-24 24-24s24 10.746093 24 24c0 13.257812-10.746094 24-24 24zm279.589844-88h-31.78125c-.386719-11.558594-1.878906-23.058594-4.457031-34.335938 5.832031-2.96875 11.34375-6.527344 16.449219-10.621094 11.171874 12.523438 18.097656 28.261719 19.789062 44.957032zm-79.589844 88c-8.480468 0-17.519531-10.78125-23.824218-28.335938 15.503906-4.878906 32.132812-4.878906 47.640624 0-6.296874 17.554688-15.335937 28.335938-23.816406 28.335938zm38.6875-21.949219c3.1875 1.757812 6.25 3.734375 9.167969 5.910156-5.050781 3.824219-10.542969 7.035156-16.351563 9.558594 2.847657-4.933594 5.253907-10.109375 7.183594-15.46875zm-70.191406 15.460937c-5.8125-2.527344-11.300781-5.734375-16.351562-9.558594 2.917968-2.175781 5.980468-4.148437 9.167968-5.902343 1.929688 5.355469 4.332032 10.53125 7.183594 15.460937zm31.503906-41.511718c-9.550781.011718-19.046875 1.445312-28.175781 4.257812-2.027344-9.296875-3.246094-18.75-3.640625-28.257812h63.632812c-.394531 9.507812-1.613281 18.960937-3.640624 28.257812-9.128907-2.8125-18.625-4.246094-28.175782-4.257812zm-31.816406-40c.394531-9.503907 1.613281-18.960938 3.640625-28.253907 18.355469 5.667969 37.996094 5.667969 56.351563 0 2.027343 9.292969 3.246093 18.75 3.640624 28.253907zm31.816406-72c8.480469 0 17.519532 10.785156 23.824219 28.335937-15.507813 4.882813-32.136719 4.882813-47.640625 0 6.296875-17.550781 15.335938-28.335937 23.816406-28.335937zm-38.6875 21.953124c-3.1875-1.757812-6.25-3.730468-9.167968-5.902343 5.046874-3.839844 10.539062-7.0625 16.351562-9.601563-2.851562 4.945313-5.257812 10.132813-7.183594 15.503906zm70.191406-15.464843c5.8125 2.539062 11.300782 5.761719 16.351563 9.601562-2.917969 2.175781-5.980469 4.152344-9.167969 5.910157-1.929687-5.371094-4.332031-10.5625-7.183594-15.511719zm-91.304687 20.5625c5.105469 4.09375 10.617187 7.652343 16.449219 10.621093-2.578125 11.277344-4.070313 22.769532-4.457032 34.328126h-31.785156c1.695313-16.695313 8.621094-32.425782 19.792969-44.949219zm-19.792969 60.949219h31.785156c.386719 11.5625 1.878907 23.058593 4.457032 34.335937-5.832032 2.96875-11.34375 6.53125-16.449219 10.625-11.171875-12.523437-18.097656-28.261719-19.792969-44.960937zm139.402344 44.953124c-5.105469-4.09375-10.617188-7.65625-16.449219-10.625 2.574219-11.273437 4.0625-22.769531 4.449219-34.328124h31.78125c-1.691406 16.695312-8.621094 32.429687-19.789062 44.953124zm140.191406 27.046876c-13.253906 0-24-10.742188-24-24 0-13.253907 10.746094-24 24-24s24 10.746093 24 24c0 13.257812-10.746094 24-24 24zm0 0"/></svg>